# MagicaVoxel @ Ephtracy

# group
o 

# material
mtllib CrossyCar01.mtl
usemtl palette

# normals
vn -1 0 0
vn 1 0 0
vn 0 0 1
vn 0 0 -1
vn 0 -1 0
vn 0 1 0

# texcoords
vt 0.0996094 0.5
vt 0.388672 0.5
vt 0.494141 0.5
vt 0.896484 0.5
vt 0.904297 0.5
vt 0.919922 0.5
vt 0.927734 0.5
vt 0.958984 0.5
vt 0.982422 0.5
vt 0.990234 0.5
vt 0.994141 0.5

# verts
v -0.6 0.4 0.4
v -0.6 0.4 0.2
v -0.6 0.5 0.4
v -0.6 0.5 0.2
v -0.5 0 0.4
v -0.5 0 0.1
v -0.5 0 -0.5
v -0.5 0 -0.8
v -0.5 0.1 0.8
v -0.5 0.1 0.4
v -0.5 0.1 0.3
v -0.5 0.1 0.2
v -0.5 0.1 0.1
v -0.5 0.1 -0.5
v -0.5 0.1 -0.6
v -0.5 0.1 -0.7
v -0.5 0.1 -0.8
v -0.5 0.1 -0.9
v -0.5 0.2 0.8
v -0.5 0.2 0.4
v -0.5 0.2 0.3
v -0.5 0.2 0.2
v -0.5 0.2 0.1
v -0.5 0.2 -0.5
v -0.5 0.2 -0.6
v -0.5 0.2 -0.7
v -0.5 0.2 -0.8
v -0.5 0.2 -0.9
v -0.5 0.3 0.8
v -0.5 0.3 0.4
v -0.5 0.3 0.1
v -0.5 0.3 -0.5
v -0.5 0.3 -0.8
v -0.5 0.3 -0.9
v -0.5 0.4 0.4
v -0.5 0.4 0.2
v -0.5 0.5 0.8
v -0.5 0.5 0.4
v -0.5 0.5 0.2
v -0.5 0.5 -0.9
v -0.4 0.5 0.3
v -0.4 0.5 0.2
v -0.4 0.5 -0.2
v -0.4 0.5 -0.3
v -0.4 0.5 -0.5
v -0.4 0.5 -0.6
v -0.4 0.7 0.2
v -0.4 0.7 -0.2
v -0.4 0.7 -0.3
v -0.4 0.7 -0.5
v -0.4 0.8 0.3
v -0.4 0.8 -0.6
v 0.2 0 0.4
v 0.2 0 0.1
v 0.2 0 -0.5
v 0.2 0 -0.8
v 0.2 0.1 0.4
v 0.2 0.1 0.1
v 0.2 0.1 -0.5
v 0.2 0.1 -0.8
v -0.4 0 0.4
v -0.4 0 0.1
v -0.4 0 -0.5
v -0.4 0 -0.8
v -0.4 0.1 0.4
v -0.4 0.1 0.1
v -0.4 0.1 -0.5
v -0.4 0.1 -0.8
v 0.2 0.5 0.3
v 0.2 0.5 0.2
v 0.2 0.5 -0.2
v 0.2 0.5 -0.3
v 0.2 0.5 -0.5
v 0.2 0.5 -0.6
v 0.2 0.7 0.2
v 0.2 0.7 -0.2
v 0.2 0.7 -0.3
v 0.2 0.7 -0.5
v 0.2 0.8 0.3
v 0.2 0.8 -0.6
v 0.3 0 0.4
v 0.3 0 0.1
v 0.3 0 -0.5
v 0.3 0 -0.8
v 0.3 0.1 0.8
v 0.3 0.1 0.4
v 0.3 0.1 0.3
v 0.3 0.1 0.2
v 0.3 0.1 0.1
v 0.3 0.1 -0.5
v 0.3 0.1 -0.6
v 0.3 0.1 -0.7
v 0.3 0.1 -0.8
v 0.3 0.1 -0.9
v 0.3 0.2 0.8
v 0.3 0.2 0.4
v 0.3 0.2 0.3
v 0.3 0.2 0.2
v 0.3 0.2 0.1
v 0.3 0.2 -0.5
v 0.3 0.2 -0.6
v 0.3 0.2 -0.7
v 0.3 0.2 -0.8
v 0.3 0.2 -0.9
v 0.3 0.3 0.8
v 0.3 0.3 0.4
v 0.3 0.3 0.1
v 0.3 0.3 -0.5
v 0.3 0.3 -0.8
v 0.3 0.3 -0.9
v 0.3 0.4 0.4
v 0.3 0.4 0.2
v 0.3 0.5 0.8
v 0.3 0.5 0.4
v 0.3 0.5 0.2
v 0.3 0.5 -0.9
v 0.4 0.4 0.4
v 0.4 0.4 0.2
v 0.4 0.5 0.4
v 0.4 0.5 0.2
v -0.5 0.1 0.8
v -0.5 0.2 0.8
v -0.5 0.3 0.8
v -0.5 0.5 0.8
v -0.4 0.3 0.8
v -0.4 0.4 0.8
v -0.3 0.3 0.8
v -0.3 0.4 0.8
v -0.2 0.3 0.8
v -0.2 0.5 0.8
v 5.96046e-08 0.3 0.8
v 5.96046e-08 0.5 0.8
v 0.1 0.3 0.8
v 0.1 0.4 0.8
v 0.2 0.3 0.8
v 0.2 0.4 0.8
v 0.3 0.1 0.8
v 0.3 0.2 0.8
v 0.3 0.3 0.8
v 0.3 0.5 0.8
v -0.6 0.4 0.4
v -0.6 0.5 0.4
v -0.5 0 0.4
v -0.5 0.1 0.4
v -0.5 0.4 0.4
v -0.5 0.5 0.4
v -0.4 0 0.4
v -0.4 0.1 0.4
v 0.2 0 0.4
v 0.2 0.1 0.4
v 0.3 0 0.4
v 0.3 0.1 0.4
v 0.3 0.4 0.4
v 0.3 0.5 0.4
v 0.4 0.4 0.4
v 0.4 0.5 0.4
v -0.4 0.5 0.3
v -0.4 0.8 0.3
v -0.3 0.5 0.3
v -0.3 0.7 0.3
v -0.2 0.5 0.3
v 5.96046e-08 0.5 0.3
v 0.1 0.5 0.3
v 0.1 0.7 0.3
v 0.2 0.5 0.3
v 0.2 0.8 0.3
v -0.5 0 -0.5
v -0.5 0.1 -0.5
v -0.4 0 -0.5
v -0.4 0.1 -0.5
v 0.2 0 -0.5
v 0.2 0.1 -0.5
v 0.3 0 -0.5
v 0.3 0.1 -0.5
v -0.6 0.4 0.2
v -0.6 0.5 0.2
v -0.5 0.4 0.2
v -0.5 0.5 0.2
v 0.3 0.4 0.2
v 0.3 0.5 0.2
v 0.4 0.4 0.2
v 0.4 0.5 0.2
v -0.5 0 0.1
v -0.5 0.1 0.1
v -0.4 0 0.1
v -0.4 0.1 0.1
v 0.2 0 0.1
v 0.2 0.1 0.1
v 0.3 0 0.1
v 0.3 0.1 0.1
v -0.4 0.5 -0.6
v -0.4 0.8 -0.6
v -0.2 0.5 -0.6
v 5.96046e-08 0.5 -0.6
v 0.2 0.5 -0.6
v 0.2 0.8 -0.6
v -0.5 0 -0.8
v -0.5 0.1 -0.8
v -0.4 0 -0.8
v -0.4 0.1 -0.8
v 0.2 0 -0.8
v 0.2 0.1 -0.8
v 0.3 0 -0.8
v 0.3 0.1 -0.8
v -0.5 0.1 -0.9
v -0.5 0.2 -0.9
v -0.5 0.3 -0.9
v -0.5 0.5 -0.9
v -0.4 0.3 -0.9
v -0.4 0.4 -0.9
v -0.3 0.3 -0.9
v -0.3 0.4 -0.9
v -0.2 0.3 -0.9
v -0.2 0.5 -0.9
v 5.96046e-08 0.3 -0.9
v 5.96046e-08 0.5 -0.9
v 0.1 0.3 -0.9
v 0.1 0.4 -0.9
v 0.2 0.3 -0.9
v 0.2 0.4 -0.9
v 0.3 0.1 -0.9
v 0.3 0.2 -0.9
v 0.3 0.3 -0.9
v 0.3 0.5 -0.9
v -0.5 0 0.4
v -0.4 0 0.4
v 0.2 0 0.4
v 0.3 0 0.4
v -0.5 0 0.1
v -0.4 0 0.1
v 0.2 0 0.1
v 0.3 0 0.1
v -0.5 0 -0.5
v -0.4 0 -0.5
v 0.2 0 -0.5
v 0.3 0 -0.5
v -0.5 0 -0.8
v -0.4 0 -0.8
v 0.2 0 -0.8
v 0.3 0 -0.8
v -0.5 0.1 0.8
v 0.3 0.1 0.8
v -0.4 0.1 0.6
v 0.2 0.1 0.6
v -0.5 0.1 0.4
v -0.4 0.1 0.4
v 0.2 0.1 0.4
v 0.3 0.1 0.4
v -0.5 0.1 0.1
v -0.4 0.1 0.1
v 0.2 0.1 0.1
v 0.3 0.1 0.1
v -0.5 0.1 -0.5
v -0.4 0.1 -0.5
v 0.2 0.1 -0.5
v 0.3 0.1 -0.5
v -0.5 0.1 -0.8
v -0.4 0.1 -0.8
v 0.2 0.1 -0.8
v 0.3 0.1 -0.8
v -0.5 0.1 -0.9
v 0.3 0.1 -0.9
v -0.6 0.4 0.4
v -0.5 0.4 0.4
v 0.3 0.4 0.4
v 0.4 0.4 0.4
v -0.6 0.4 0.2
v -0.5 0.4 0.2
v 0.3 0.4 0.2
v 0.4 0.4 0.2
v -0.5 0.5 0.8
v -0.2 0.5 0.8
v 5.96046e-08 0.5 0.8
v 0.3 0.5 0.8
v -0.6 0.5 0.4
v -0.5 0.5 0.4
v 0.3 0.5 0.4
v 0.4 0.5 0.4
v -0.4 0.5 0.3
v -0.3 0.5 0.3
v -0.2 0.5 0.3
v 5.96046e-08 0.5 0.3
v 0.1 0.5 0.3
v 0.2 0.5 0.3
v -0.6 0.5 0.2
v -0.5 0.5 0.2
v -0.4 0.5 0.2
v 0.2 0.5 0.2
v 0.3 0.5 0.2
v 0.4 0.5 0.2
v -0.4 0.5 -0.2
v 0.2 0.5 -0.2
v -0.4 0.5 -0.3
v 0.2 0.5 -0.3
v -0.4 0.5 -0.5
v 0.2 0.5 -0.5
v -0.4 0.5 -0.6
v -0.2 0.5 -0.6
v 5.96046e-08 0.5 -0.6
v 0.2 0.5 -0.6
v -0.5 0.5 -0.9
v -0.2 0.5 -0.9
v 5.96046e-08 0.5 -0.9
v 0.3 0.5 -0.9
v -0.4 0.8 0.3
v 0.2 0.8 0.3
v -0.4 0.8 -0.6
v 0.2 0.8 -0.6

# faces
f 3/5/1 2/5/1 1/5/1
f 4/5/1 2/5/1 3/5/1
f 10/10/1 6/10/1 5/10/1
f 11/10/1 6/10/1 10/10/1
f 12/10/1 6/10/1 11/10/1
f 13/10/1 6/10/1 12/10/1
f 14/10/1 8/10/1 7/10/1
f 15/10/1 8/10/1 14/10/1
f 16/10/1 8/10/1 15/10/1
f 17/10/1 8/10/1 16/10/1
f 19/6/1 10/6/1 9/6/1
f 20/10/1 11/10/1 10/10/1
f 20/6/1 10/6/1 19/6/1
f 21/9/1 12/9/1 11/9/1
f 21/10/1 11/10/1 20/10/1
f 22/10/1 13/10/1 12/10/1
f 22/9/1 12/9/1 21/9/1
f 23/6/1 14/6/1 13/6/1
f 23/10/1 13/10/1 22/10/1
f 24/10/1 15/10/1 14/10/1
f 24/6/1 14/6/1 23/6/1
f 25/9/1 16/9/1 15/9/1
f 25/10/1 15/10/1 24/10/1
f 26/10/1 17/10/1 16/10/1
f 26/9/1 16/9/1 25/9/1
f 27/6/1 18/6/1 17/6/1
f 27/10/1 17/10/1 26/10/1
f 28/6/1 18/6/1 27/6/1
f 29/4/1 20/4/1 19/4/1
f 30/10/1 21/10/1 20/10/1
f 30/4/1 20/4/1 29/4/1
f 30/10/1 22/10/1 21/10/1
f 30/10/1 23/10/1 22/10/1
f 31/4/1 24/4/1 23/4/1
f 31/10/1 23/10/1 30/10/1
f 32/10/1 26/10/1 25/10/1
f 32/4/1 24/4/1 31/4/1
f 32/10/1 27/10/1 26/10/1
f 32/10/1 25/10/1 24/10/1
f 33/4/1 28/4/1 27/4/1
f 33/10/1 27/10/1 32/10/1
f 34/4/1 28/4/1 33/4/1
f 35/5/1 31/5/1 30/5/1
f 35/5/1 32/5/1 31/5/1
f 35/5/1 34/5/1 33/5/1
f 35/5/1 33/5/1 32/5/1
f 35/5/1 30/5/1 29/5/1
f 36/5/1 34/5/1 35/5/1
f 37/5/1 35/5/1 29/5/1
f 38/5/1 35/5/1 37/5/1
f 39/5/1 34/5/1 36/5/1
f 40/5/1 34/5/1 39/5/1
f 47/8/1 42/8/1 41/8/1
f 47/11/1 43/11/1 42/11/1
f 48/8/1 44/8/1 43/8/1
f 48/11/1 43/11/1 47/11/1
f 49/11/1 45/11/1 44/11/1
f 49/8/1 44/8/1 48/8/1
f 50/8/1 46/8/1 45/8/1
f 50/11/1 45/11/1 49/11/1
f 51/8/1 49/8/1 48/8/1
f 51/8/1 48/8/1 47/8/1
f 51/8/1 50/8/1 49/8/1
f 51/8/1 47/8/1 41/8/1
f 52/8/1 46/8/1 50/8/1
f 52/8/1 50/8/1 51/8/1
f 57/10/1 54/10/1 53/10/1
f 58/10/1 54/10/1 57/10/1
f 59/10/1 56/10/1 55/10/1
f 60/10/1 56/10/1 59/10/1
f 61/10/2 62/10/2 65/10/2
f 65/10/2 62/10/2 66/10/2
f 63/10/2 64/10/2 67/10/2
f 67/10/2 64/10/2 68/10/2
f 69/8/2 70/8/2 75/8/2
f 70/11/2 71/11/2 75/11/2
f 71/8/2 72/8/2 76/8/2
f 75/11/2 71/11/2 76/11/2
f 72/11/2 73/11/2 77/11/2
f 76/8/2 72/8/2 77/8/2
f 73/8/2 74/8/2 78/8/2
f 77/11/2 73/11/2 78/11/2
f 76/8/2 77/8/2 79/8/2
f 75/8/2 76/8/2 79/8/2
f 77/8/2 78/8/2 79/8/2
f 69/8/2 75/8/2 79/8/2
f 78/8/2 74/8/2 80/8/2
f 79/8/2 78/8/2 80/8/2
f 81/10/2 82/10/2 86/10/2
f 86/10/2 82/10/2 87/10/2
f 87/10/2 82/10/2 88/10/2
f 88/10/2 82/10/2 89/10/2
f 83/10/2 84/10/2 90/10/2
f 90/10/2 84/10/2 91/10/2
f 91/10/2 84/10/2 92/10/2
f 92/10/2 84/10/2 93/10/2
f 85/6/2 86/6/2 95/6/2
f 86/10/2 87/10/2 96/10/2
f 95/6/2 86/6/2 96/6/2
f 87/9/2 88/9/2 97/9/2
f 96/10/2 87/10/2 97/10/2
f 88/10/2 89/10/2 98/10/2
f 97/9/2 88/9/2 98/9/2
f 89/6/2 90/6/2 99/6/2
f 98/10/2 89/10/2 99/10/2
f 90/10/2 91/10/2 100/10/2
f 99/6/2 90/6/2 100/6/2
f 91/9/2 92/9/2 101/9/2
f 100/10/2 91/10/2 101/10/2
f 92/10/2 93/10/2 102/10/2
f 101/9/2 92/9/2 102/9/2
f 93/6/2 94/6/2 103/6/2
f 102/10/2 93/10/2 103/10/2
f 103/6/2 94/6/2 104/6/2
f 95/4/2 96/4/2 105/4/2
f 96/10/2 97/10/2 106/10/2
f 105/4/2 96/4/2 106/4/2
f 97/10/2 98/10/2 106/10/2
f 98/10/2 99/10/2 106/10/2
f 99/4/2 100/4/2 107/4/2
f 106/10/2 99/10/2 107/10/2
f 101/10/2 102/10/2 108/10/2
f 107/4/2 100/4/2 108/4/2
f 102/10/2 103/10/2 108/10/2
f 100/10/2 101/10/2 108/10/2
f 103/4/2 104/4/2 109/4/2
f 108/10/2 103/10/2 109/10/2
f 109/4/2 104/4/2 110/4/2
f 106/5/2 107/5/2 111/5/2
f 107/5/2 108/5/2 111/5/2
f 109/5/2 110/5/2 111/5/2
f 108/5/2 109/5/2 111/5/2
f 105/5/2 106/5/2 111/5/2
f 111/5/2 110/5/2 112/5/2
f 105/5/2 111/5/2 113/5/2
f 113/5/2 111/5/2 114/5/2
f 112/5/2 110/5/2 115/5/2
f 115/5/2 110/5/2 116/5/2
f 117/5/2 118/5/2 119/5/2
f 119/5/2 118/5/2 120/5/2
f 125/4/3 123/4/3 122/4/3
f 125/5/3 124/5/3 123/5/3
f 126/5/3 124/5/3 125/5/3
f 127/4/3 125/4/3 122/4/3
f 127/2/3 126/2/3 125/2/3
f 128/5/3 124/5/3 126/5/3
f 128/2/3 126/2/3 127/2/3
f 129/4/3 127/4/3 122/4/3
f 129/5/3 128/5/3 127/5/3
f 130/5/3 124/5/3 128/5/3
f 130/5/3 128/5/3 129/5/3
f 131/4/3 129/4/3 122/4/3
f 131/4/3 130/4/3 129/4/3
f 132/4/3 130/4/3 131/4/3
f 133/4/3 131/4/3 122/4/3
f 133/5/3 132/5/3 131/5/3
f 134/5/3 132/5/3 133/5/3
f 135/4/3 133/4/3 122/4/3
f 135/2/3 134/2/3 133/2/3
f 136/5/3 132/5/3 134/5/3
f 136/2/3 134/2/3 135/2/3
f 137/6/3 122/6/3 121/6/3
f 138/4/3 135/4/3 122/4/3
f 138/6/3 122/6/3 137/6/3
f 139/5/3 136/5/3 135/5/3
f 139/4/3 135/4/3 138/4/3
f 140/5/3 132/5/3 136/5/3
f 140/5/3 136/5/3 139/5/3
f 145/5/3 142/5/3 141/5/3
f 146/5/3 142/5/3 145/5/3
f 147/10/3 144/10/3 143/10/3
f 148/10/3 144/10/3 147/10/3
f 151/10/3 150/10/3 149/10/3
f 152/10/3 150/10/3 151/10/3
f 155/5/3 154/5/3 153/5/3
f 156/5/3 154/5/3 155/5/3
f 159/8/3 158/8/3 157/8/3
f 160/8/3 158/8/3 159/8/3
f 161/11/3 160/11/3 159/11/3
f 162/11/3 160/11/3 161/11/3
f 163/11/3 160/11/3 162/11/3
f 164/8/3 158/8/3 160/8/3
f 164/11/3 160/11/3 163/11/3
f 165/8/3 164/8/3 163/8/3
f 166/8/3 158/8/3 164/8/3
f 166/8/3 164/8/3 165/8/3
f 169/10/3 168/10/3 167/10/3
f 170/10/3 168/10/3 169/10/3
f 173/10/3 172/10/3 171/10/3
f 174/10/3 172/10/3 173/10/3
f 175/5/4 176/5/4 177/5/4
f 177/5/4 176/5/4 178/5/4
f 179/5/4 180/5/4 181/5/4
f 181/5/4 180/5/4 182/5/4
f 183/10/4 184/10/4 185/10/4
f 185/10/4 184/10/4 186/10/4
f 187/10/4 188/10/4 189/10/4
f 189/10/4 188/10/4 190/10/4
f 191/8/4 192/8/4 193/8/4
f 193/8/4 192/8/4 194/8/4
f 194/8/4 192/8/4 195/8/4
f 195/8/4 192/8/4 196/8/4
f 197/10/4 198/10/4 199/10/4
f 199/10/4 198/10/4 200/10/4
f 201/10/4 202/10/4 203/10/4
f 203/10/4 202/10/4 204/10/4
f 206/4/4 207/4/4 209/4/4
f 207/5/4 208/5/4 209/5/4
f 209/5/4 208/5/4 210/5/4
f 206/4/4 209/4/4 211/4/4
f 209/1/4 210/1/4 211/1/4
f 210/5/4 208/5/4 212/5/4
f 211/1/4 210/1/4 212/1/4
f 206/4/4 211/4/4 213/4/4
f 211/5/4 212/5/4 213/5/4
f 212/5/4 208/5/4 214/5/4
f 213/5/4 212/5/4 214/5/4
f 206/4/4 213/4/4 215/4/4
f 213/4/4 214/4/4 215/4/4
f 215/4/4 214/4/4 216/4/4
f 206/4/4 215/4/4 217/4/4
f 215/5/4 216/5/4 217/5/4
f 217/5/4 216/5/4 218/5/4
f 206/4/4 217/4/4 219/4/4
f 217/1/4 218/1/4 219/1/4
f 218/5/4 216/5/4 220/5/4
f 219/1/4 218/1/4 220/1/4
f 205/6/4 206/6/4 221/6/4
f 206/4/4 219/4/4 222/4/4
f 221/6/4 206/6/4 222/6/4
f 219/5/4 220/5/4 223/5/4
f 222/4/4 219/4/4 223/4/4
f 220/5/4 216/5/4 224/5/4
f 223/5/4 220/5/4 224/5/4
f 229/10/5 226/10/5 225/10/5
f 230/10/5 226/10/5 229/10/5
f 231/10/5 228/10/5 227/10/5
f 232/10/5 228/10/5 231/10/5
f 237/10/5 234/10/5 233/10/5
f 238/10/5 234/10/5 237/10/5
f 239/10/5 236/10/5 235/10/5
f 240/10/5 236/10/5 239/10/5
f 243/6/5 242/6/5 241/6/5
f 244/6/5 242/6/5 243/6/5
f 245/6/5 243/6/5 241/6/5
f 246/7/5 244/7/5 243/7/5
f 246/6/5 243/6/5 245/6/5
f 247/6/5 242/6/5 244/6/5
f 247/7/5 244/7/5 246/7/5
f 248/6/5 242/6/5 247/6/5
f 250/7/5 247/7/5 246/7/5
f 251/7/5 247/7/5 250/7/5
f 253/6/5 250/6/5 249/6/5
f 254/7/5 251/7/5 250/7/5
f 254/6/5 250/6/5 253/6/5
f 255/6/5 252/6/5 251/6/5
f 255/7/5 251/7/5 254/7/5
f 256/6/5 252/6/5 255/6/5
f 258/7/5 255/7/5 254/7/5
f 259/7/5 255/7/5 258/7/5
f 261/6/5 258/6/5 257/6/5
f 261/6/5 260/6/5 259/6/5
f 261/6/5 259/6/5 258/6/5
f 262/6/5 260/6/5 261/6/5
f 267/5/5 264/5/5 263/5/5
f 268/5/5 264/5/5 267/5/5
f 269/5/5 266/5/5 265/5/5
f 270/5/5 266/5/5 269/5/5
f 271/5/6 272/5/6 276/5/6
f 273/5/6 274/5/6 277/5/6
f 275/5/6 276/5/6 279/5/6
f 276/5/6 272/5/6 279/5/6
f 279/5/6 272/5/6 280/5/6
f 272/4/6 273/4/6 281/4/6
f 280/5/6 272/5/6 281/5/6
f 277/5/6 278/5/6 282/5/6
f 281/4/6 273/4/6 282/4/6
f 273/5/6 277/5/6 282/5/6
f 282/5/6 278/5/6 283/5/6
f 283/5/6 278/5/6 284/5/6
f 275/5/6 279/5/6 285/5/6
f 285/5/6 279/5/6 286/5/6
f 286/5/6 279/5/6 287/5/6
f 284/5/6 278/5/6 288/5/6
f 288/5/6 278/5/6 289/5/6
f 289/5/6 278/5/6 290/5/6
f 286/5/6 287/5/6 291/5/6
f 288/5/6 289/5/6 292/5/6
f 286/5/6 291/5/6 293/5/6
f 292/5/6 289/5/6 294/5/6
f 286/5/6 293/5/6 295/5/6
f 294/5/6 289/5/6 296/5/6
f 286/5/6 295/5/6 297/5/6
f 296/5/6 289/5/6 300/5/6
f 286/5/6 297/5/6 301/5/6
f 297/5/6 298/5/6 301/5/6
f 298/4/6 299/4/6 302/4/6
f 301/5/6 298/5/6 302/5/6
f 299/5/6 300/5/6 303/5/6
f 302/4/6 299/4/6 303/4/6
f 300/5/6 289/5/6 304/5/6
f 303/5/6 300/5/6 304/5/6
f 305/8/6 306/8/6 307/8/6
f 307/8/6 306/8/6 308/8/6
