# MagicaVoxel @ Ephtracy

# group
o 

# material
mtllib CrossyChicken.mtl
usemtl palette

# normals
vn -1 0 0
vn 1 0 0
vn 0 0 1
vn 0 0 -1
vn 0 -1 0
vn 0 1 0

# texcoords
vt 0.0722656 0.5
vt 0.244141 0.5
vt 0.912109 0.5
vt 0.916016 0.5
vt 0.994141 0.5

# verts
v -0.3 0.4 0.3
v -0.3 0.4 -0.3
v -0.3 0.8 0.3
v -0.3 0.8 -0.3
v -0.2 0 0.4
v -0.2 0 -0.1
v -0.2 0.1 0.4
v -0.2 0.1 -0.1
v -0.1 0.1 0.1
v -0.1 0.1 -5.96046e-08
v -0.1 0.3 0.5
v -0.1 0.3 0.1
v -0.1 0.3 -5.96046e-08
v -0.1 0.3 -0.5
v -0.1 0.4 0.5
v -0.1 0.4 0.3
v -0.1 0.4 -0.3
v -0.1 0.4 -0.5
v -0.1 0.8 0.3
v -0.1 0.8 -0.3
v -0.1 0.9 -0.2
v -0.1 0.9 -0.5
v -0.1 1.3 0.3
v -0.1 1.3 0.2
v -0.1 1.4 0.3
v -0.1 1.4 0.2
v -0.1 1.6 0.5
v -0.1 1.6 -0.2
v 2.98023e-08 0 0.4
v 2.98023e-08 0 0.2
v 2.98023e-08 0.1 0.4
v 2.98023e-08 0.1 0.2
v 0.1 0.6 -0.5
v 0.1 0.6 -0.7
v 0.1 0.9 -0.5
v 0.1 0.9 -0.7
v 0.1 1 0.7
v 0.1 1 0.5
v 0.1 1.2 0.8
v 0.1 1.2 0.7
v 0.1 1.2 0.5
v 0.1 1.4 0.8
v 0.1 1.4 0.5
v 0.1 1.6 0.4
v 0.1 1.6 0.1
v 0.1 1.8 0.4
v 0.1 1.8 0.1
v 0.3 0 0.4
v 0.3 0 -0.1
v 0.3 0.1 0.4
v 0.3 0.1 -0.1
v 0.4 0.1 0.1
v 0.4 0.1 -5.96046e-08
v 0.4 0.3 0.1
v 0.4 0.3 -5.96046e-08
v 0.5 0 0.4
v 0.5 0 0.2
v 0.5 0.1 0.4
v 0.5 0.1 0.2
v -0.1 0 0.4
v -0.1 0 0.2
v -0.1 0.1 0.4
v -0.1 0.1 0.2
v 2.98023e-08 0.1 0.1
v 2.98023e-08 0.1 -5.96046e-08
v 2.98023e-08 0.3 0.1
v 2.98023e-08 0.3 -5.96046e-08
v 0.1 0 0.4
v 0.1 0 -0.1
v 0.1 0.1 0.4
v 0.1 0.1 -0.1
v 0.3 0.6 -0.5
v 0.3 0.6 -0.7
v 0.3 0.9 -0.5
v 0.3 0.9 -0.7
v 0.3 1 0.7
v 0.3 1 0.5
v 0.3 1.2 0.8
v 0.3 1.2 0.7
v 0.3 1.2 0.5
v 0.3 1.4 0.8
v 0.3 1.4 0.5
v 0.3 1.6 0.4
v 0.3 1.6 0.1
v 0.3 1.8 0.4
v 0.3 1.8 0.1
v 0.4 0 0.4
v 0.4 0 0.2
v 0.4 0.1 0.4
v 0.4 0.1 0.2
v 0.5 0.1 0.1
v 0.5 0.1 -5.96046e-08
v 0.5 0.3 0.5
v 0.5 0.3 0.1
v 0.5 0.3 -5.96046e-08
v 0.5 0.3 -0.5
v 0.5 0.4 0.5
v 0.5 0.4 0.3
v 0.5 0.4 -0.3
v 0.5 0.4 -0.5
v 0.5 0.8 0.3
v 0.5 0.8 -0.3
v 0.5 0.9 -0.2
v 0.5 0.9 -0.5
v 0.5 1.3 0.3
v 0.5 1.3 0.2
v 0.5 1.4 0.3
v 0.5 1.4 0.2
v 0.5 1.6 0.5
v 0.5 1.6 -0.2
v 0.6 0 0.4
v 0.6 0 -0.1
v 0.6 0.1 0.4
v 0.6 0.1 -0.1
v 0.7 0.4 0.3
v 0.7 0.4 -0.3
v 0.7 0.8 0.3
v 0.7 0.8 -0.3
v 0.1 1.2 0.8
v 0.1 1.4 0.8
v 0.3 1.2 0.8
v 0.3 1.4 0.8
v 0.1 1 0.7
v 0.1 1.2 0.7
v 0.3 1 0.7
v 0.3 1.2 0.7
v -0.1 0.3 0.5
v -0.1 0.4 0.5
v -0.1 1.6 0.5
v 0.1 1 0.5
v 0.1 1.2 0.5
v 0.1 1.4 0.5
v 0.3 1 0.5
v 0.3 1.2 0.5
v 0.3 1.4 0.5
v 0.5 0.3 0.5
v 0.5 0.4 0.5
v 0.5 1.6 0.5
v -0.2 0 0.4
v -0.2 0.1 0.4
v -0.1 0 0.4
v -0.1 0.1 0.4
v 2.98023e-08 0 0.4
v 2.98023e-08 0.1 0.4
v 0.1 0 0.4
v 0.1 0.1 0.4
v 0.1 1.6 0.4
v 0.1 1.8 0.4
v 0.3 0 0.4
v 0.3 0.1 0.4
v 0.3 1.6 0.4
v 0.3 1.8 0.4
v 0.4 0 0.4
v 0.4 0.1 0.4
v 0.5 0 0.4
v 0.5 0.1 0.4
v 0.6 0 0.4
v 0.6 0.1 0.4
v -0.3 0.4 0.3
v -0.3 0.8 0.3
v -0.2 0.4 0.3
v -0.2 0.8 0.3
v -0.1 0.4 0.3
v -0.1 0.8 0.3
v 0.5 0.4 0.3
v 0.5 0.8 0.3
v 0.6 0.4 0.3
v 0.6 0.8 0.3
v 0.7 0.4 0.3
v 0.7 0.8 0.3
v -0.1 0 0.2
v -0.1 0.1 0.2
v 2.98023e-08 0 0.2
v 2.98023e-08 0.1 0.2
v 0.4 0 0.2
v 0.4 0.1 0.2
v 0.5 0 0.2
v 0.5 0.1 0.2
v -0.1 0.1 0.1
v -0.1 0.3 0.1
v 2.98023e-08 0.1 0.1
v 2.98023e-08 0.3 0.1
v 0.4 0.1 0.1
v 0.4 0.3 0.1
v 0.5 0.1 0.1
v 0.5 0.3 0.1
v 0.1 1.6 0.1
v 0.1 1.8 0.1
v 0.3 1.6 0.1
v 0.3 1.8 0.1
v -0.1 0.1 -5.96046e-08
v -0.1 0.3 -5.96046e-08
v 2.98023e-08 0.1 -5.96046e-08
v 2.98023e-08 0.3 -5.96046e-08
v 0.4 0.1 -5.96046e-08
v 0.4 0.3 -5.96046e-08
v 0.5 0.1 -5.96046e-08
v 0.5 0.3 -5.96046e-08
v -0.2 0 -0.1
v -0.2 0.1 -0.1
v 0.1 0 -0.1
v 0.1 0.1 -0.1
v 0.3 0 -0.1
v 0.3 0.1 -0.1
v 0.6 0 -0.1
v 0.6 0.1 -0.1
v -0.1 0.9 -0.2
v -0.1 1.6 -0.2
v 0.5 0.9 -0.2
v 0.5 1.6 -0.2
v -0.3 0.4 -0.3
v -0.3 0.8 -0.3
v -0.2 0.4 -0.3
v -0.2 0.8 -0.3
v -0.1 0.4 -0.3
v -0.1 0.8 -0.3
v 0.5 0.4 -0.3
v 0.5 0.8 -0.3
v 0.6 0.4 -0.3
v 0.6 0.8 -0.3
v 0.7 0.4 -0.3
v 0.7 0.8 -0.3
v -0.1 0.3 -0.5
v -0.1 0.4 -0.5
v -0.1 0.9 -0.5
v 0.1 0.6 -0.5
v 0.1 0.9 -0.5
v 0.3 0.6 -0.5
v 0.3 0.9 -0.5
v 0.5 0.3 -0.5
v 0.5 0.4 -0.5
v 0.5 0.9 -0.5
v 0.1 0.6 -0.7
v 0.1 0.9 -0.7
v 0.3 0.6 -0.7
v 0.3 0.9 -0.7
v -0.2 0 0.4
v -0.1 0 0.4
v 2.98023e-08 0 0.4
v 0.1 0 0.4
v 0.3 0 0.4
v 0.4 0 0.4
v 0.5 0 0.4
v 0.6 0 0.4
v -0.1 0 0.2
v 2.98023e-08 0 0.2
v 0.4 0 0.2
v 0.5 0 0.2
v -0.2 0 -0.1
v 0.1 0 -0.1
v 0.3 0 -0.1
v 0.6 0 -0.1
v -0.1 0.3 0.5
v 0.5 0.3 0.5
v -0.1 0.3 0.1
v 2.98023e-08 0.3 0.1
v 0.4 0.3 0.1
v 0.5 0.3 0.1
v -0.1 0.3 -5.96046e-08
v 2.98023e-08 0.3 -5.96046e-08
v 0.4 0.3 -5.96046e-08
v 0.5 0.3 -5.96046e-08
v -0.1 0.3 -0.5
v 0.5 0.3 -0.5
v -0.3 0.4 0.3
v -0.2 0.4 0.3
v -0.1 0.4 0.3
v 0.5 0.4 0.3
v 0.6 0.4 0.3
v 0.7 0.4 0.3
v -0.3 0.4 -0.3
v -0.2 0.4 -0.3
v -0.1 0.4 -0.3
v 0.5 0.4 -0.3
v 0.6 0.4 -0.3
v 0.7 0.4 -0.3
v 0.1 0.6 -0.5
v 0.3 0.6 -0.5
v 0.1 0.6 -0.7
v 0.3 0.6 -0.7
v 0.1 1 0.7
v 0.3 1 0.7
v 0.1 1 0.5
v 0.3 1 0.5
v 0.1 1.2 0.8
v 0.3 1.2 0.8
v 0.1 1.2 0.7
v 0.3 1.2 0.7
v -0.2 0.1 0.4
v -0.1 0.1 0.4
v 2.98023e-08 0.1 0.4
v 0.1 0.1 0.4
v 0.3 0.1 0.4
v 0.4 0.1 0.4
v 0.5 0.1 0.4
v 0.6 0.1 0.4
v -0.1 0.1 0.2
v 2.98023e-08 0.1 0.2
v 0.4 0.1 0.2
v 0.5 0.1 0.2
v -0.1 0.1 0.1
v 2.98023e-08 0.1 0.1
v 0.4 0.1 0.1
v 0.5 0.1 0.1
v -0.1 0.1 -5.96046e-08
v 2.98023e-08 0.1 -5.96046e-08
v 0.4 0.1 -5.96046e-08
v 0.5 0.1 -5.96046e-08
v -0.2 0.1 -0.1
v 0.1 0.1 -0.1
v 0.3 0.1 -0.1
v 0.6 0.1 -0.1
v -0.3 0.8 0.3
v -0.2 0.8 0.3
v -0.1 0.8 0.3
v 0.5 0.8 0.3
v 0.6 0.8 0.3
v 0.7 0.8 0.3
v -0.3 0.8 -0.3
v -0.2 0.8 -0.3
v -0.1 0.8 -0.3
v 0.5 0.8 -0.3
v 0.6 0.8 -0.3
v 0.7 0.8 -0.3
v -0.1 0.9 -0.2
v 0.5 0.9 -0.2
v -0.1 0.9 -0.5
v 0.1 0.9 -0.5
v 0.3 0.9 -0.5
v 0.5 0.9 -0.5
v 0.1 0.9 -0.7
v 0.3 0.9 -0.7
v 0.1 1.4 0.8
v 0.3 1.4 0.8
v 0.1 1.4 0.5
v 0.3 1.4 0.5
v -0.1 1.6 0.5
v 0.5 1.6 0.5
v 0.1 1.6 0.4
v 0.3 1.6 0.4
v 0.1 1.6 0.1
v 0.3 1.6 0.1
v -0.1 1.6 -0.2
v 0.5 1.6 -0.2
v 0.1 1.8 0.4
v 0.3 1.8 0.4
v 0.1 1.8 0.1
v 0.3 1.8 0.1

# faces
f 3/4/1 2/4/1 1/4/1
f 4/4/1 2/4/1 3/4/1
f 7/2/1 6/2/1 5/2/1
f 8/2/1 6/2/1 7/2/1
f 12/2/1 10/2/1 9/2/1
f 13/2/1 10/2/1 12/2/1
f 15/4/1 12/4/1 11/4/1
f 15/4/1 14/4/1 13/4/1
f 15/4/1 13/4/1 12/4/1
f 16/4/1 14/4/1 15/4/1
f 17/4/1 14/4/1 16/4/1
f 18/4/1 14/4/1 17/4/1
f 19/3/1 16/3/1 15/3/1
f 20/3/1 18/3/1 17/3/1
f 21/3/1 20/3/1 19/3/1
f 22/3/1 18/3/1 20/3/1
f 22/3/1 20/3/1 21/3/1
f 23/3/1 19/3/1 15/3/1
f 23/3/1 21/3/1 19/3/1
f 24/3/1 21/3/1 23/3/1
f 25/3/1 23/3/1 15/3/1
f 25/5/1 24/5/1 23/5/1
f 26/3/1 21/3/1 24/3/1
f 26/5/1 24/5/1 25/5/1
f 27/3/1 25/3/1 15/3/1
f 27/3/1 26/3/1 25/3/1
f 28/3/1 21/3/1 26/3/1
f 28/3/1 26/3/1 27/3/1
f 31/2/1 30/2/1 29/2/1
f 32/2/1 30/2/1 31/2/1
f 35/3/1 34/3/1 33/3/1
f 36/3/1 34/3/1 35/3/1
f 40/1/1 38/1/1 37/1/1
f 41/1/1 38/1/1 40/1/1
f 42/2/1 40/2/1 39/2/1
f 42/2/1 41/2/1 40/2/1
f 43/2/1 41/2/1 42/2/1
f 46/1/1 45/1/1 44/1/1
f 47/1/1 45/1/1 46/1/1
f 50/2/1 49/2/1 48/2/1
f 51/2/1 49/2/1 50/2/1
f 54/2/1 53/2/1 52/2/1
f 55/2/1 53/2/1 54/2/1
f 58/2/1 57/2/1 56/2/1
f 59/2/1 57/2/1 58/2/1
f 60/2/2 61/2/2 62/2/2
f 62/2/2 61/2/2 63/2/2
f 64/2/2 65/2/2 66/2/2
f 66/2/2 65/2/2 67/2/2
f 68/2/2 69/2/2 70/2/2
f 70/2/2 69/2/2 71/2/2
f 72/3/2 73/3/2 74/3/2
f 74/3/2 73/3/2 75/3/2
f 76/1/2 77/1/2 79/1/2
f 79/1/2 77/1/2 80/1/2
f 78/2/2 79/2/2 81/2/2
f 79/2/2 80/2/2 81/2/2
f 81/2/2 80/2/2 82/2/2
f 83/1/2 84/1/2 85/1/2
f 85/1/2 84/1/2 86/1/2
f 87/2/2 88/2/2 89/2/2
f 89/2/2 88/2/2 90/2/2
f 91/2/2 92/2/2 94/2/2
f 94/2/2 92/2/2 95/2/2
f 93/4/2 94/4/2 97/4/2
f 95/4/2 96/4/2 97/4/2
f 94/4/2 95/4/2 97/4/2
f 97/4/2 96/4/2 98/4/2
f 98/4/2 96/4/2 99/4/2
f 99/4/2 96/4/2 100/4/2
f 97/3/2 98/3/2 101/3/2
f 99/3/2 100/3/2 102/3/2
f 101/3/2 102/3/2 103/3/2
f 102/3/2 100/3/2 104/3/2
f 103/3/2 102/3/2 104/3/2
f 97/3/2 101/3/2 105/3/2
f 101/3/2 103/3/2 105/3/2
f 105/3/2 103/3/2 106/3/2
f 97/3/2 105/3/2 107/3/2
f 105/5/2 106/5/2 107/5/2
f 106/3/2 103/3/2 108/3/2
f 107/5/2 106/5/2 108/5/2
f 97/3/2 107/3/2 109/3/2
f 107/3/2 108/3/2 109/3/2
f 108/3/2 103/3/2 110/3/2
f 109/3/2 108/3/2 110/3/2
f 111/2/2 112/2/2 113/2/2
f 113/2/2 112/2/2 114/2/2
f 115/4/2 116/4/2 117/4/2
f 117/4/2 116/4/2 118/4/2
f 121/2/3 120/2/3 119/2/3
f 122/2/3 120/2/3 121/2/3
f 125/1/3 124/1/3 123/1/3
f 126/1/3 124/1/3 125/1/3
f 130/3/3 129/3/3 128/3/3
f 131/3/3 129/3/3 130/3/3
f 132/3/3 129/3/3 131/3/3
f 133/3/3 130/3/3 128/3/3
f 135/3/3 129/3/3 132/3/3
f 136/4/3 128/4/3 127/4/3
f 137/3/3 135/3/3 134/3/3
f 137/4/3 128/4/3 136/4/3
f 137/3/3 134/3/3 133/3/3
f 137/3/3 133/3/3 128/3/3
f 138/3/3 129/3/3 135/3/3
f 138/3/3 135/3/3 137/3/3
f 141/2/3 140/2/3 139/2/3
f 142/2/3 140/2/3 141/2/3
f 145/2/3 144/2/3 143/2/3
f 146/2/3 144/2/3 145/2/3
f 151/1/3 148/1/3 147/1/3
f 152/1/3 148/1/3 151/1/3
f 153/2/3 150/2/3 149/2/3
f 154/2/3 150/2/3 153/2/3
f 157/2/3 156/2/3 155/2/3
f 158/2/3 156/2/3 157/2/3
f 161/4/3 160/4/3 159/4/3
f 162/4/3 160/4/3 161/4/3
f 163/3/3 162/3/3 161/3/3
f 164/3/3 162/3/3 163/3/3
f 167/3/3 166/3/3 165/3/3
f 168/3/3 166/3/3 167/3/3
f 169/4/3 168/4/3 167/4/3
f 170/4/3 168/4/3 169/4/3
f 173/2/3 172/2/3 171/2/3
f 174/2/3 172/2/3 173/2/3
f 177/2/3 176/2/3 175/2/3
f 178/2/3 176/2/3 177/2/3
f 181/2/3 180/2/3 179/2/3
f 182/2/3 180/2/3 181/2/3
f 185/2/3 184/2/3 183/2/3
f 186/2/3 184/2/3 185/2/3
f 187/1/4 188/1/4 189/1/4
f 189/1/4 188/1/4 190/1/4
f 191/2/4 192/2/4 193/2/4
f 193/2/4 192/2/4 194/2/4
f 195/2/4 196/2/4 197/2/4
f 197/2/4 196/2/4 198/2/4
f 199/2/4 200/2/4 201/2/4
f 201/2/4 200/2/4 202/2/4
f 203/2/4 204/2/4 205/2/4
f 205/2/4 204/2/4 206/2/4
f 207/3/4 208/3/4 209/3/4
f 209/3/4 208/3/4 210/3/4
f 211/4/4 212/4/4 213/4/4
f 213/4/4 212/4/4 214/4/4
f 213/3/4 214/3/4 215/3/4
f 215/3/4 214/3/4 216/3/4
f 217/3/4 218/3/4 219/3/4
f 219/3/4 218/3/4 220/3/4
f 219/4/4 220/4/4 221/4/4
f 221/4/4 220/4/4 222/4/4
f 224/3/4 225/3/4 226/3/4
f 226/3/4 225/3/4 227/3/4
f 224/3/4 226/3/4 228/3/4
f 223/4/4 224/4/4 230/4/4
f 228/3/4 229/3/4 231/3/4
f 230/4/4 224/4/4 231/4/4
f 224/3/4 228/3/4 231/3/4
f 231/3/4 229/3/4 232/3/4
f 233/3/4 234/3/4 235/3/4
f 235/3/4 234/3/4 236/3/4
f 245/2/5 238/2/5 237/2/5
f 246/2/5 240/2/5 239/2/5
f 247/2/5 242/2/5 241/2/5
f 248/2/5 244/2/5 243/2/5
f 249/2/5 245/2/5 237/2/5
f 249/2/5 246/2/5 245/2/5
f 250/2/5 240/2/5 246/2/5
f 250/2/5 246/2/5 249/2/5
f 251/2/5 247/2/5 241/2/5
f 251/2/5 248/2/5 247/2/5
f 252/2/5 244/2/5 248/2/5
f 252/2/5 248/2/5 251/2/5
f 255/4/5 254/4/5 253/4/5
f 256/4/5 254/4/5 255/4/5
f 257/4/5 254/4/5 256/4/5
f 258/4/5 254/4/5 257/4/5
f 260/4/5 257/4/5 256/4/5
f 261/4/5 257/4/5 260/4/5
f 263/4/5 260/4/5 259/4/5
f 263/4/5 262/4/5 261/4/5
f 263/4/5 261/4/5 260/4/5
f 264/4/5 262/4/5 263/4/5
f 271/4/5 266/4/5 265/4/5
f 272/3/5 267/3/5 266/3/5
f 272/4/5 266/4/5 271/4/5
f 273/3/5 267/3/5 272/3/5
f 274/3/5 269/3/5 268/3/5
f 275/4/5 270/4/5 269/4/5
f 275/3/5 269/3/5 274/3/5
f 276/4/5 270/4/5 275/4/5
f 279/3/5 278/3/5 277/3/5
f 280/3/5 278/3/5 279/3/5
f 283/1/5 282/1/5 281/1/5
f 284/1/5 282/1/5 283/1/5
f 287/2/5 286/2/5 285/2/5
f 288/2/5 286/2/5 287/2/5
f 289/2/6 290/2/6 297/2/6
f 291/2/6 292/2/6 298/2/6
f 293/2/6 294/2/6 299/2/6
f 295/2/6 296/2/6 300/2/6
f 289/2/6 297/2/6 301/2/6
f 297/2/6 298/2/6 301/2/6
f 298/2/6 292/2/6 302/2/6
f 301/2/6 298/2/6 302/2/6
f 293/2/6 299/2/6 303/2/6
f 299/2/6 300/2/6 303/2/6
f 300/2/6 296/2/6 304/2/6
f 303/2/6 300/2/6 304/2/6
f 289/2/6 301/2/6 305/2/6
f 302/2/6 292/2/6 306/2/6
f 293/2/6 303/2/6 307/2/6
f 304/2/6 296/2/6 308/2/6
f 289/2/6 305/2/6 309/2/6
f 305/2/6 306/2/6 309/2/6
f 306/2/6 292/2/6 310/2/6
f 309/2/6 306/2/6 310/2/6
f 307/2/6 308/2/6 311/2/6
f 293/2/6 307/2/6 311/2/6
f 308/2/6 296/2/6 312/2/6
f 311/2/6 308/2/6 312/2/6
f 313/4/6 314/4/6 319/4/6
f 314/3/6 315/3/6 320/3/6
f 319/4/6 314/4/6 320/4/6
f 320/3/6 315/3/6 321/3/6
f 316/3/6 317/3/6 322/3/6
f 317/4/6 318/4/6 323/4/6
f 322/3/6 317/3/6 323/3/6
f 323/4/6 318/4/6 324/4/6
f 325/3/6 326/3/6 327/3/6
f 327/3/6 326/3/6 328/3/6
f 328/3/6 326/3/6 329/3/6
f 329/3/6 326/3/6 330/3/6
f 328/3/6 329/3/6 331/3/6
f 331/3/6 329/3/6 332/3/6
f 333/2/6 334/2/6 335/2/6
f 335/2/6 334/2/6 336/2/6
f 337/3/6 338/3/6 339/3/6
f 339/3/6 338/3/6 340/3/6
f 337/3/6 339/3/6 341/3/6
f 340/3/6 338/3/6 342/3/6
f 337/3/6 341/3/6 343/3/6
f 341/3/6 342/3/6 343/3/6
f 342/3/6 338/3/6 344/3/6
f 343/3/6 342/3/6 344/3/6
f 345/1/6 346/1/6 347/1/6
f 347/1/6 346/1/6 348/1/6
