# MagicaVoxel @ Ephtracy

# group
o 

# material
mtllib CrossyCar04.mtl
usemtl palette

# normals
vn -1 0 0
vn 1 0 0
vn 0 0 1
vn 0 0 -1
vn 0 -1 0
vn 0 1 0

# texcoords
vt 0.0996094 0.5
vt 0.146484 0.5
vt 0.388672 0.5
vt 0.494141 0.5
vt 0.919922 0.5
vt 0.927734 0.5
vt 0.958984 0.5
vt 0.982422 0.5
vt 0.990234 0.5
vt 0.994141 0.5

# verts
v -0.6 0.4 0.7
v -0.6 0.4 0.5
v -0.6 0.5 0.7
v -0.6 0.5 0.5
v -0.5 0 0.7
v -0.5 0 0.4
v -0.5 0 -0.2
v -0.5 0 -0.5
v -0.5 0.1 1.1
v -0.5 0.1 0.7
v -0.5 0.1 0.6
v -0.5 0.1 0.5
v -0.5 0.1 0.4
v -0.5 0.1 -0.2
v -0.5 0.1 -0.3
v -0.5 0.1 -0.4
v -0.5 0.1 -0.5
v -0.5 0.1 -0.6
v -0.5 0.2 1.1
v -0.5 0.2 0.7
v -0.5 0.2 0.6
v -0.5 0.2 0.5
v -0.5 0.2 0.4
v -0.5 0.2 -0.2
v -0.5 0.2 -0.3
v -0.5 0.2 -0.4
v -0.5 0.2 -0.5
v -0.5 0.2 -0.6
v -0.5 0.3 0.7
v -0.5 0.3 0.4
v -0.5 0.3 -0.2
v -0.5 0.3 -0.5
v -0.5 0.4 0.7
v -0.5 0.4 0.5
v -0.5 0.5 1.1
v -0.5 0.5 0.7
v -0.5 0.5 0.5
v -0.5 0.5 -0.6
v -0.4 0.5 0.6
v -0.4 0.5 0.5
v -0.4 0.5 0.1
v -0.4 0.5 0
v -0.4 0.5 -0.2
v -0.4 0.5 -0.3
v -0.4 0.7 0.5
v -0.4 0.7 0.1
v -0.4 0.7 0
v -0.4 0.7 -0.2
v -0.4 0.8 0.6
v -0.4 0.8 -0.3
v 0.2 0 0.7
v 0.2 0 0.4
v 0.2 0 -0.2
v 0.2 0 -0.5
v 0.2 0.1 0.7
v 0.2 0.1 0.4
v 0.2 0.1 -0.2
v 0.2 0.1 -0.5
v -0.4 0 0.7
v -0.4 0 0.4
v -0.4 0 -0.2
v -0.4 0 -0.5
v -0.4 0.1 0.7
v -0.4 0.1 0.4
v -0.4 0.1 -0.2
v -0.4 0.1 -0.5
v 0.2 0.5 0.6
v 0.2 0.5 0.5
v 0.2 0.5 0.1
v 0.2 0.5 0
v 0.2 0.5 -0.2
v 0.2 0.5 -0.3
v 0.2 0.7 0.5
v 0.2 0.7 0.1
v 0.2 0.7 0
v 0.2 0.7 -0.2
v 0.2 0.8 0.6
v 0.2 0.8 -0.3
v 0.3 0 0.7
v 0.3 0 0.4
v 0.3 0 -0.2
v 0.3 0 -0.5
v 0.3 0.1 1.1
v 0.3 0.1 0.7
v 0.3 0.1 0.6
v 0.3 0.1 0.5
v 0.3 0.1 0.4
v 0.3 0.1 -0.2
v 0.3 0.1 -0.3
v 0.3 0.1 -0.4
v 0.3 0.1 -0.5
v 0.3 0.1 -0.6
v 0.3 0.2 1.1
v 0.3 0.2 0.7
v 0.3 0.2 0.6
v 0.3 0.2 0.5
v 0.3 0.2 0.4
v 0.3 0.2 -0.2
v 0.3 0.2 -0.3
v 0.3 0.2 -0.4
v 0.3 0.2 -0.5
v 0.3 0.2 -0.6
v 0.3 0.3 0.7
v 0.3 0.3 0.4
v 0.3 0.3 -0.2
v 0.3 0.3 -0.5
v 0.3 0.4 0.7
v 0.3 0.4 0.5
v 0.3 0.5 1.1
v 0.3 0.5 0.7
v 0.3 0.5 0.5
v 0.3 0.5 -0.6
v 0.4 0.4 0.7
v 0.4 0.4 0.5
v 0.4 0.5 0.7
v 0.4 0.5 0.5
v -0.5 0.1 1.1
v -0.5 0.2 1.1
v -0.5 0.5 1.1
v -0.4 0.3 1.1
v -0.4 0.4 1.1
v -0.3 0.3 1.1
v -0.3 0.4 1.1
v 0.1 0.3 1.1
v 0.1 0.4 1.1
v 0.2 0.3 1.1
v 0.2 0.4 1.1
v 0.3 0.1 1.1
v 0.3 0.2 1.1
v 0.3 0.5 1.1
v -0.6 0.4 0.7
v -0.6 0.5 0.7
v -0.5 0 0.7
v -0.5 0.1 0.7
v -0.5 0.4 0.7
v -0.5 0.5 0.7
v -0.4 0 0.7
v -0.4 0.1 0.7
v 0.2 0 0.7
v 0.2 0.1 0.7
v 0.3 0 0.7
v 0.3 0.1 0.7
v 0.3 0.4 0.7
v 0.3 0.5 0.7
v 0.4 0.4 0.7
v 0.4 0.5 0.7
v -0.4 0.5 0.6
v -0.4 0.8 0.6
v -0.3 0.5 0.6
v -0.3 0.7 0.6
v 0.1 0.5 0.6
v 0.1 0.7 0.6
v 0.2 0.5 0.6
v 0.2 0.8 0.6
v -0.5 0 -0.2
v -0.5 0.1 -0.2
v -0.4 0 -0.2
v -0.4 0.1 -0.2
v 0.2 0 -0.2
v 0.2 0.1 -0.2
v 0.3 0 -0.2
v 0.3 0.1 -0.2
v -0.6 0.4 0.5
v -0.6 0.5 0.5
v -0.5 0.4 0.5
v -0.5 0.5 0.5
v 0.3 0.4 0.5
v 0.3 0.5 0.5
v 0.4 0.4 0.5
v 0.4 0.5 0.5
v -0.5 0 0.4
v -0.5 0.1 0.4
v -0.4 0 0.4
v -0.4 0.1 0.4
v 0.2 0 0.4
v 0.2 0.1 0.4
v 0.3 0 0.4
v 0.3 0.1 0.4
v -0.4 0.5 -0.3
v -0.4 0.8 -0.3
v 0.2 0.5 -0.3
v 0.2 0.8 -0.3
v -0.5 0 -0.5
v -0.5 0.1 -0.5
v -0.4 0 -0.5
v -0.4 0.1 -0.5
v 0.2 0 -0.5
v 0.2 0.1 -0.5
v 0.3 0 -0.5
v 0.3 0.1 -0.5
v -0.5 0.1 -0.6
v -0.5 0.2 -0.6
v -0.5 0.5 -0.6
v -0.4 0.3 -0.6
v -0.4 0.4 -0.6
v -0.3 0.3 -0.6
v -0.3 0.4 -0.6
v 0.1 0.3 -0.6
v 0.1 0.4 -0.6
v 0.2 0.3 -0.6
v 0.2 0.4 -0.6
v 0.3 0.1 -0.6
v 0.3 0.2 -0.6
v 0.3 0.5 -0.6
v -0.5 0 0.7
v -0.4 0 0.7
v 0.2 0 0.7
v 0.3 0 0.7
v -0.5 0 0.4
v -0.4 0 0.4
v 0.2 0 0.4
v 0.3 0 0.4
v -0.5 0 -0.2
v -0.4 0 -0.2
v 0.2 0 -0.2
v 0.3 0 -0.2
v -0.5 0 -0.5
v -0.4 0 -0.5
v 0.2 0 -0.5
v 0.3 0 -0.5
v -0.5 0.1 1.1
v 0.3 0.1 1.1
v -0.4 0.1 0.9
v 0.2 0.1 0.9
v -0.5 0.1 0.7
v -0.4 0.1 0.7
v 0.2 0.1 0.7
v 0.3 0.1 0.7
v -0.5 0.1 0.4
v -0.4 0.1 0.4
v 0.2 0.1 0.4
v 0.3 0.1 0.4
v -0.5 0.1 -0.2
v -0.4 0.1 -0.2
v 0.2 0.1 -0.2
v 0.3 0.1 -0.2
v -0.5 0.1 -0.5
v -0.4 0.1 -0.5
v 0.2 0.1 -0.5
v 0.3 0.1 -0.5
v -0.5 0.1 -0.6
v 0.3 0.1 -0.6
v -0.6 0.4 0.7
v -0.5 0.4 0.7
v 0.3 0.4 0.7
v 0.4 0.4 0.7
v -0.6 0.4 0.5
v -0.5 0.4 0.5
v 0.3 0.4 0.5
v 0.4 0.4 0.5
v -0.5 0.5 1.1
v 0.3 0.5 1.1
v -0.6 0.5 0.7
v -0.5 0.5 0.7
v 0.3 0.5 0.7
v 0.4 0.5 0.7
v -0.4 0.5 0.6
v -0.3 0.5 0.6
v 0.1 0.5 0.6
v 0.2 0.5 0.6
v -0.6 0.5 0.5
v -0.5 0.5 0.5
v -0.4 0.5 0.5
v 0.2 0.5 0.5
v 0.3 0.5 0.5
v 0.4 0.5 0.5
v -0.4 0.5 0.1
v 0.2 0.5 0.1
v -0.4 0.5 0
v 0.2 0.5 0
v -0.4 0.5 -0.2
v 0.2 0.5 -0.2
v -0.4 0.5 -0.3
v 0.2 0.5 -0.3
v -0.5 0.5 -0.6
v 0.3 0.5 -0.6
v -0.4 0.8 0.6
v 0.2 0.8 0.6
v -0.4 0.8 -0.3
v 0.2 0.8 -0.3

# faces
f 3/2/1 2/2/1 1/2/1
f 4/2/1 2/2/1 3/2/1
f 10/9/1 6/9/1 5/9/1
f 11/9/1 6/9/1 10/9/1
f 12/9/1 6/9/1 11/9/1
f 13/9/1 6/9/1 12/9/1
f 14/9/1 8/9/1 7/9/1
f 15/9/1 8/9/1 14/9/1
f 16/9/1 8/9/1 15/9/1
f 17/9/1 8/9/1 16/9/1
f 19/5/1 10/5/1 9/5/1
f 20/9/1 11/9/1 10/9/1
f 20/5/1 10/5/1 19/5/1
f 21/8/1 12/8/1 11/8/1
f 21/9/1 11/9/1 20/9/1
f 22/9/1 13/9/1 12/9/1
f 22/8/1 12/8/1 21/8/1
f 23/5/1 14/5/1 13/5/1
f 23/9/1 13/9/1 22/9/1
f 24/9/1 15/9/1 14/9/1
f 24/5/1 14/5/1 23/5/1
f 25/8/1 16/8/1 15/8/1
f 25/9/1 15/9/1 24/9/1
f 26/9/1 17/9/1 16/9/1
f 26/8/1 16/8/1 25/8/1
f 27/5/1 18/5/1 17/5/1
f 27/9/1 17/9/1 26/9/1
f 28/5/1 18/5/1 27/5/1
f 29/9/1 21/9/1 20/9/1
f 29/2/1 20/2/1 19/2/1
f 29/9/1 22/9/1 21/9/1
f 29/9/1 23/9/1 22/9/1
f 30/2/1 24/2/1 23/2/1
f 30/9/1 23/9/1 29/9/1
f 31/9/1 26/9/1 25/9/1
f 31/2/1 24/2/1 30/2/1
f 31/9/1 27/9/1 26/9/1
f 31/9/1 25/9/1 24/9/1
f 32/2/1 28/2/1 27/2/1
f 32/9/1 27/9/1 31/9/1
f 33/2/1 30/2/1 29/2/1
f 33/2/1 31/2/1 30/2/1
f 33/2/1 32/2/1 31/2/1
f 33/2/1 29/2/1 19/2/1
f 34/2/1 32/2/1 33/2/1
f 35/2/1 33/2/1 19/2/1
f 36/2/1 33/2/1 35/2/1
f 37/2/1 32/2/1 34/2/1
f 38/2/1 28/2/1 32/2/1
f 38/2/1 32/2/1 37/2/1
f 45/7/1 40/7/1 39/7/1
f 45/10/1 41/10/1 40/10/1
f 46/7/1 42/7/1 41/7/1
f 46/10/1 41/10/1 45/10/1
f 47/10/1 43/10/1 42/10/1
f 47/7/1 42/7/1 46/7/1
f 48/7/1 44/7/1 43/7/1
f 48/10/1 43/10/1 47/10/1
f 49/7/1 47/7/1 46/7/1
f 49/7/1 46/7/1 45/7/1
f 49/7/1 48/7/1 47/7/1
f 49/7/1 45/7/1 39/7/1
f 50/7/1 44/7/1 48/7/1
f 50/7/1 48/7/1 49/7/1
f 55/9/1 52/9/1 51/9/1
f 56/9/1 52/9/1 55/9/1
f 57/9/1 54/9/1 53/9/1
f 58/9/1 54/9/1 57/9/1
f 59/9/2 60/9/2 63/9/2
f 63/9/2 60/9/2 64/9/2
f 61/9/2 62/9/2 65/9/2
f 65/9/2 62/9/2 66/9/2
f 67/7/2 68/7/2 73/7/2
f 68/10/2 69/10/2 73/10/2
f 69/7/2 70/7/2 74/7/2
f 73/10/2 69/10/2 74/10/2
f 70/10/2 71/10/2 75/10/2
f 74/7/2 70/7/2 75/7/2
f 71/7/2 72/7/2 76/7/2
f 75/10/2 71/10/2 76/10/2
f 74/7/2 75/7/2 77/7/2
f 73/7/2 74/7/2 77/7/2
f 75/7/2 76/7/2 77/7/2
f 67/7/2 73/7/2 77/7/2
f 76/7/2 72/7/2 78/7/2
f 77/7/2 76/7/2 78/7/2
f 79/9/2 80/9/2 84/9/2
f 84/9/2 80/9/2 85/9/2
f 85/9/2 80/9/2 86/9/2
f 86/9/2 80/9/2 87/9/2
f 81/9/2 82/9/2 88/9/2
f 88/9/2 82/9/2 89/9/2
f 89/9/2 82/9/2 90/9/2
f 90/9/2 82/9/2 91/9/2
f 83/5/2 84/5/2 93/5/2
f 84/9/2 85/9/2 94/9/2
f 93/5/2 84/5/2 94/5/2
f 85/8/2 86/8/2 95/8/2
f 94/9/2 85/9/2 95/9/2
f 86/9/2 87/9/2 96/9/2
f 95/8/2 86/8/2 96/8/2
f 87/5/2 88/5/2 97/5/2
f 96/9/2 87/9/2 97/9/2
f 88/9/2 89/9/2 98/9/2
f 97/5/2 88/5/2 98/5/2
f 89/8/2 90/8/2 99/8/2
f 98/9/2 89/9/2 99/9/2
f 90/9/2 91/9/2 100/9/2
f 99/8/2 90/8/2 100/8/2
f 91/5/2 92/5/2 101/5/2
f 100/9/2 91/9/2 101/9/2
f 101/5/2 92/5/2 102/5/2
f 94/9/2 95/9/2 103/9/2
f 93/2/2 94/2/2 103/2/2
f 95/9/2 96/9/2 103/9/2
f 96/9/2 97/9/2 103/9/2
f 97/2/2 98/2/2 104/2/2
f 103/9/2 97/9/2 104/9/2
f 99/9/2 100/9/2 105/9/2
f 104/2/2 98/2/2 105/2/2
f 100/9/2 101/9/2 105/9/2
f 98/9/2 99/9/2 105/9/2
f 101/2/2 102/2/2 106/2/2
f 105/9/2 101/9/2 106/9/2
f 103/2/2 104/2/2 107/2/2
f 104/2/2 105/2/2 107/2/2
f 105/2/2 106/2/2 107/2/2
f 93/2/2 103/2/2 107/2/2
f 107/2/2 106/2/2 108/2/2
f 93/2/2 107/2/2 109/2/2
f 109/2/2 107/2/2 110/2/2
f 108/2/2 106/2/2 111/2/2
f 106/2/2 102/2/2 112/2/2
f 111/2/2 106/2/2 112/2/2
f 113/2/2 114/2/2 115/2/2
f 115/2/2 114/2/2 116/2/2
f 120/2/3 119/2/3 118/2/3
f 121/2/3 119/2/3 120/2/3
f 122/2/3 120/2/3 118/2/3
f 122/3/3 121/3/3 120/3/3
f 123/2/3 119/2/3 121/2/3
f 123/3/3 121/3/3 122/3/3
f 124/2/3 122/2/3 118/2/3
f 124/2/3 123/2/3 122/2/3
f 125/2/3 119/2/3 123/2/3
f 125/2/3 123/2/3 124/2/3
f 126/2/3 124/2/3 118/2/3
f 126/3/3 125/3/3 124/3/3
f 127/2/3 119/2/3 125/2/3
f 127/3/3 125/3/3 126/3/3
f 128/5/3 118/5/3 117/5/3
f 129/2/3 126/2/3 118/2/3
f 129/5/3 118/5/3 128/5/3
f 129/2/3 127/2/3 126/2/3
f 130/2/3 119/2/3 127/2/3
f 130/2/3 127/2/3 129/2/3
f 135/2/3 132/2/3 131/2/3
f 136/2/3 132/2/3 135/2/3
f 137/9/3 134/9/3 133/9/3
f 138/9/3 134/9/3 137/9/3
f 141/9/3 140/9/3 139/9/3
f 142/9/3 140/9/3 141/9/3
f 145/2/3 144/2/3 143/2/3
f 146/2/3 144/2/3 145/2/3
f 149/7/3 148/7/3 147/7/3
f 150/7/3 148/7/3 149/7/3
f 151/10/3 150/10/3 149/10/3
f 152/7/3 148/7/3 150/7/3
f 152/10/3 150/10/3 151/10/3
f 153/7/3 152/7/3 151/7/3
f 154/7/3 148/7/3 152/7/3
f 154/7/3 152/7/3 153/7/3
f 157/9/3 156/9/3 155/9/3
f 158/9/3 156/9/3 157/9/3
f 161/9/3 160/9/3 159/9/3
f 162/9/3 160/9/3 161/9/3
f 163/2/4 164/2/4 165/2/4
f 165/2/4 164/2/4 166/2/4
f 167/2/4 168/2/4 169/2/4
f 169/2/4 168/2/4 170/2/4
f 171/9/4 172/9/4 173/9/4
f 173/9/4 172/9/4 174/9/4
f 175/9/4 176/9/4 177/9/4
f 177/9/4 176/9/4 178/9/4
f 179/7/4 180/7/4 181/7/4
f 181/7/4 180/7/4 182/7/4
f 183/9/4 184/9/4 185/9/4
f 185/9/4 184/9/4 186/9/4
f 187/9/4 188/9/4 189/9/4
f 189/9/4 188/9/4 190/9/4
f 192/2/4 193/2/4 194/2/4
f 194/2/4 193/2/4 195/2/4
f 192/2/4 194/2/4 196/2/4
f 194/1/4 195/1/4 196/1/4
f 195/2/4 193/2/4 197/2/4
f 196/1/4 195/1/4 197/1/4
f 192/2/4 196/2/4 198/2/4
f 196/2/4 197/2/4 198/2/4
f 197/2/4 193/2/4 199/2/4
f 198/2/4 197/2/4 199/2/4
f 192/2/4 198/2/4 200/2/4
f 198/1/4 199/1/4 200/1/4
f 199/2/4 193/2/4 201/2/4
f 200/1/4 199/1/4 201/1/4
f 191/5/4 192/5/4 202/5/4
f 192/2/4 200/2/4 203/2/4
f 202/5/4 192/5/4 203/5/4
f 200/2/4 201/2/4 203/2/4
f 201/2/4 193/2/4 204/2/4
f 203/2/4 201/2/4 204/2/4
f 209/9/5 206/9/5 205/9/5
f 210/9/5 206/9/5 209/9/5
f 211/9/5 208/9/5 207/9/5
f 212/9/5 208/9/5 211/9/5
f 217/9/5 214/9/5 213/9/5
f 218/9/5 214/9/5 217/9/5
f 219/9/5 216/9/5 215/9/5
f 220/9/5 216/9/5 219/9/5
f 223/5/5 222/5/5 221/5/5
f 224/5/5 222/5/5 223/5/5
f 225/5/5 223/5/5 221/5/5
f 226/6/5 224/6/5 223/6/5
f 226/5/5 223/5/5 225/5/5
f 227/5/5 222/5/5 224/5/5
f 227/6/5 224/6/5 226/6/5
f 228/5/5 222/5/5 227/5/5
f 230/6/5 227/6/5 226/6/5
f 231/6/5 227/6/5 230/6/5
f 233/5/5 230/5/5 229/5/5
f 234/6/5 231/6/5 230/6/5
f 234/5/5 230/5/5 233/5/5
f 235/5/5 232/5/5 231/5/5
f 235/6/5 231/6/5 234/6/5
f 236/5/5 232/5/5 235/5/5
f 238/6/5 235/6/5 234/6/5
f 239/6/5 235/6/5 238/6/5
f 241/5/5 238/5/5 237/5/5
f 241/5/5 240/5/5 239/5/5
f 241/5/5 239/5/5 238/5/5
f 242/5/5 240/5/5 241/5/5
f 247/2/5 244/2/5 243/2/5
f 248/2/5 244/2/5 247/2/5
f 249/2/5 246/2/5 245/2/5
f 250/2/5 246/2/5 249/2/5
f 251/2/6 252/2/6 254/2/6
f 254/2/6 252/2/6 255/2/6
f 253/2/6 254/2/6 257/2/6
f 255/2/6 256/2/6 257/2/6
f 254/2/6 255/2/6 257/2/6
f 257/2/6 256/2/6 258/2/6
f 258/2/6 256/2/6 259/2/6
f 259/2/6 256/2/6 260/2/6
f 253/2/6 257/2/6 261/2/6
f 261/2/6 257/2/6 262/2/6
f 262/2/6 257/2/6 263/2/6
f 260/2/6 256/2/6 264/2/6
f 264/2/6 256/2/6 265/2/6
f 265/2/6 256/2/6 266/2/6
f 262/2/6 263/2/6 267/2/6
f 264/2/6 265/2/6 268/2/6
f 262/2/6 267/2/6 269/2/6
f 268/2/6 265/2/6 270/2/6
f 262/2/6 269/2/6 271/2/6
f 270/2/6 265/2/6 272/2/6
f 262/2/6 271/2/6 273/2/6
f 272/2/6 265/2/6 274/2/6
f 262/2/6 273/2/6 275/2/6
f 273/2/6 274/2/6 275/2/6
f 274/2/6 265/2/6 276/2/6
f 275/2/6 274/2/6 276/2/6
f 277/7/6 278/7/6 279/7/6
f 279/7/6 278/7/6 280/7/6
