# MagicaVoxel @ Ephtracy

# group
o 

# material
mtllib CrossyDuck.mtl
usemtl palette

# normals
vn -1 0 0
vn 1 0 0
vn 0 0 1
vn 0 0 -1
vn 0 -1 0
vn 0 1 0

# texcoords
vt 0.185547 0.5
vt 0.423828 0.5
vt 0.568359 0.5
vt 0.916016 0.5
vt 0.947266 0.5
vt 0.955078 0.5
vt 0.958984 0.5
vt 0.994141 0.5

# verts
v -0.6 0.5 0.1
v -0.6 0.5 -0.5
v -0.6 0.8 0.1
v -0.6 0.8 -0.5
v -0.5 0 0.4
v -0.5 0 -5.96046e-08
v -0.5 0.1 0.4
v -0.5 0.1 -5.96046e-08
v -0.5 1.2 0.3
v -0.5 1.2 -5.96046e-08
v -0.5 1.3 0.2
v -0.5 1.3 0.1
v -0.5 1.4 0.2
v -0.5 1.4 0.1
v -0.5 1.5 0.3
v -0.5 1.5 -5.96046e-08
v -0.4 0.3 0.4
v -0.4 0.3 -0.7
v -0.4 0.5 0.4
v -0.4 0.5 0.1
v -0.4 0.5 -0.5
v -0.4 0.5 -0.7
v -0.4 0.8 0.1
v -0.4 0.8 -0.5
v -0.4 0.9 0.4
v -0.4 0.9 -0.4
v -0.4 0.9 -0.7
v -0.4 1 0.4
v -0.4 1 -0.4
v -0.4 1.2 0.3
v -0.4 1.2 -5.96046e-08
v -0.4 1.5 0.3
v -0.4 1.5 -5.96046e-08
v -0.4 1.6 0.4
v -0.4 1.6 -0.4
v -0.3 0.1 0.2
v -0.3 0.1 0.1
v -0.3 0.3 0.2
v -0.3 0.3 0.1
v -0.2 0.6 -0.7
v -0.2 0.6 -0.9
v -0.2 0.9 -0.7
v -0.2 0.9 -0.9
v -0.2 1.2 0.7
v -0.2 1.2 0.4
v -0.2 1.4 0.7
v -0.2 1.4 0.4
v 5.96046e-08 0 0.4
v 5.96046e-08 0 -5.96046e-08
v 5.96046e-08 0.1 0.4
v 5.96046e-08 0.1 -5.96046e-08
v 0.1 0.1 0.2
v 0.1 0.1 0.1
v 0.1 0.3 0.2
v 0.1 0.3 0.1
v -0.2 0.1 0.2
v -0.2 0.1 0.1
v -0.2 0.3 0.2
v -0.2 0.3 0.1
v -0.0999999 0 0.4
v -0.0999999 0 -5.96046e-08
v -0.0999999 0.1 0.4
v -0.0999999 0.1 -5.96046e-08
v 0.1 0.6 -0.7
v 0.1 0.6 -0.9
v 0.1 0.9 -0.7
v 0.1 0.9 -0.9
v 0.1 1.2 0.7
v 0.1 1.2 0.4
v 0.1 1.4 0.7
v 0.1 1.4 0.4
v 0.2 0.1 0.2
v 0.2 0.1 0.1
v 0.2 0.3 0.2
v 0.2 0.3 0.1
v 0.3 0.3 0.4
v 0.3 0.3 -0.7
v 0.3 0.5 0.4
v 0.3 0.5 0.1
v 0.3 0.5 -0.5
v 0.3 0.5 -0.7
v 0.3 0.8 0.1
v 0.3 0.8 -0.5
v 0.3 0.9 0.4
v 0.3 0.9 -0.4
v 0.3 0.9 -0.7
v 0.3 1 0.4
v 0.3 1 -0.4
v 0.3 1.2 0.3
v 0.3 1.2 -5.96046e-08
v 0.3 1.5 0.3
v 0.3 1.5 -5.96046e-08
v 0.3 1.6 0.4
v 0.3 1.6 -0.4
v 0.4 0 0.4
v 0.4 0 -5.96046e-08
v 0.4 0.1 0.4
v 0.4 0.1 -5.96046e-08
v 0.4 0.5 0.1
v 0.4 0.5 -0.5
v 0.4 0.8 0.1
v 0.4 0.8 -0.5
v 0.4 1.2 0.3
v 0.4 1.2 -5.96046e-08
v 0.4 1.3 0.2
v 0.4 1.3 0.1
v 0.4 1.4 0.2
v 0.4 1.4 0.1
v 0.4 1.5 0.3
v 0.4 1.5 -5.96046e-08
v -0.2 1.2 0.7
v -0.2 1.4 0.7
v 0.1 1.2 0.7
v 0.1 1.4 0.7
v -0.5 0 0.4
v -0.5 0.1 0.4
v -0.4 0.3 0.4
v -0.4 0.5 0.4
v -0.4 0.9 0.4
v -0.4 1 0.4
v -0.4 1.6 0.4
v -0.2 1.2 0.4
v -0.2 1.4 0.4
v -0.0999999 0 0.4
v -0.0999999 0.1 0.4
v 5.96046e-08 0 0.4
v 5.96046e-08 0.1 0.4
v 0.1 1.2 0.4
v 0.1 1.4 0.4
v 0.3 0.3 0.4
v 0.3 0.5 0.4
v 0.3 0.9 0.4
v 0.3 1 0.4
v 0.3 1.6 0.4
v 0.4 0 0.4
v 0.4 0.1 0.4
v -0.5 1.2 0.3
v -0.5 1.5 0.3
v -0.4 1.2 0.3
v -0.4 1.5 0.3
v 0.3 1.2 0.3
v 0.3 1.5 0.3
v 0.4 1.2 0.3
v 0.4 1.5 0.3
v -0.3 0.1 0.2
v -0.3 0.3 0.2
v -0.2 0.1 0.2
v -0.2 0.3 0.2
v 0.1 0.1 0.2
v 0.1 0.3 0.2
v 0.2 0.1 0.2
v 0.2 0.3 0.2
v -0.6 0.5 0.1
v -0.6 0.8 0.1
v -0.4 0.5 0.1
v -0.4 0.8 0.1
v 0.3 0.5 0.1
v 0.3 0.8 0.1
v 0.4 0.5 0.1
v 0.4 0.8 0.1
v -0.3 0.1 0.1
v -0.3 0.3 0.1
v -0.2 0.1 0.1
v -0.2 0.3 0.1
v 0.1 0.1 0.1
v 0.1 0.3 0.1
v 0.2 0.1 0.1
v 0.2 0.3 0.1
v -0.5 0 -5.96046e-08
v -0.5 0.1 -5.96046e-08
v -0.5 1.2 -5.96046e-08
v -0.5 1.5 -5.96046e-08
v -0.4 1.2 -5.96046e-08
v -0.4 1.5 -5.96046e-08
v -0.0999999 0 -5.96046e-08
v -0.0999999 0.1 -5.96046e-08
v 5.96046e-08 0 -5.96046e-08
v 5.96046e-08 0.1 -5.96046e-08
v 0.3 1.2 -5.96046e-08
v 0.3 1.5 -5.96046e-08
v 0.4 0 -5.96046e-08
v 0.4 0.1 -5.96046e-08
v 0.4 1.2 -5.96046e-08
v 0.4 1.5 -5.96046e-08
v -0.4 0.9 -0.4
v -0.4 1 -0.4
v -0.4 1.6 -0.4
v 0.3 0.9 -0.4
v 0.3 1 -0.4
v 0.3 1.6 -0.4
v -0.6 0.5 -0.5
v -0.6 0.8 -0.5
v -0.4 0.5 -0.5
v -0.4 0.8 -0.5
v 0.3 0.5 -0.5
v 0.3 0.8 -0.5
v 0.4 0.5 -0.5
v 0.4 0.8 -0.5
v -0.4 0.3 -0.7
v -0.4 0.5 -0.7
v -0.4 0.9 -0.7
v -0.2 0.6 -0.7
v -0.2 0.9 -0.7
v 0.1 0.6 -0.7
v 0.1 0.9 -0.7
v 0.3 0.3 -0.7
v 0.3 0.5 -0.7
v 0.3 0.9 -0.7
v -0.2 0.6 -0.9
v -0.2 0.9 -0.9
v 0.1 0.6 -0.9
v 0.1 0.9 -0.9
v -0.5 0 0.4
v -0.0999999 0 0.4
v 5.96046e-08 0 0.4
v 0.4 0 0.4
v -0.5 0 -5.96046e-08
v -0.0999999 0 -5.96046e-08
v 5.96046e-08 0 -5.96046e-08
v 0.4 0 -5.96046e-08
v -0.4 0.3 0.4
v 0.3 0.3 0.4
v -0.3 0.3 0.2
v -0.2 0.3 0.2
v 0.1 0.3 0.2
v 0.2 0.3 0.2
v -0.3 0.3 0.1
v -0.2 0.3 0.1
v 0.1 0.3 0.1
v 0.2 0.3 0.1
v -0.4 0.3 -0.7
v 0.3 0.3 -0.7
v -0.6 0.5 0.1
v -0.4 0.5 0.1
v 0.3 0.5 0.1
v 0.4 0.5 0.1
v -0.6 0.5 -0.5
v -0.4 0.5 -0.5
v 0.3 0.5 -0.5
v 0.4 0.5 -0.5
v -0.2 0.6 -0.7
v 0.1 0.6 -0.7
v -0.2 0.6 -0.9
v 0.1 0.6 -0.9
v -0.2 1.2 0.7
v 0.1 1.2 0.7
v -0.2 1.2 0.4
v 0.1 1.2 0.4
v -0.5 1.2 0.3
v -0.4 1.2 0.3
v 0.3 1.2 0.3
v 0.4 1.2 0.3
v -0.5 1.2 -5.96046e-08
v -0.4 1.2 -5.96046e-08
v 0.3 1.2 -5.96046e-08
v 0.4 1.2 -5.96046e-08
v -0.5 0.1 0.4
v -0.0999999 0.1 0.4
v 5.96046e-08 0.1 0.4
v 0.4 0.1 0.4
v -0.3 0.1 0.2
v -0.2 0.1 0.2
v 0.1 0.1 0.2
v 0.2 0.1 0.2
v -0.3 0.1 0.1
v -0.2 0.1 0.1
v 0.1 0.1 0.1
v 0.2 0.1 0.1
v -0.5 0.1 -5.96046e-08
v -0.0999999 0.1 -5.96046e-08
v 5.96046e-08 0.1 -5.96046e-08
v 0.4 0.1 -5.96046e-08
v -0.6 0.8 0.1
v -0.4 0.8 0.1
v 0.3 0.8 0.1
v 0.4 0.8 0.1
v -0.6 0.8 -0.5
v -0.4 0.8 -0.5
v 0.3 0.8 -0.5
v 0.4 0.8 -0.5
v -0.4 0.9 -0.4
v 0.3 0.9 -0.4
v -0.4 0.9 -0.7
v -0.2 0.9 -0.7
v 0.1 0.9 -0.7
v 0.3 0.9 -0.7
v -0.2 0.9 -0.9
v 0.1 0.9 -0.9
v -0.2 1.4 0.7
v 0.1 1.4 0.7
v -0.2 1.4 0.4
v 0.1 1.4 0.4
v -0.5 1.5 0.3
v -0.4 1.5 0.3
v 0.3 1.5 0.3
v 0.4 1.5 0.3
v -0.5 1.5 -5.96046e-08
v -0.4 1.5 -5.96046e-08
v 0.3 1.5 -5.96046e-08
v 0.4 1.5 -5.96046e-08
v -0.4 1.6 0.4
v 0.3 1.6 0.4
v -0.4 1.6 -0.4
v 0.3 1.6 -0.4

# faces
f 3/6/1 2/6/1 1/6/1
f 4/6/1 2/6/1 3/6/1
f 7/1/1 6/1/1 5/1/1
f 8/1/1 6/1/1 7/1/1
f 11/7/1 10/7/1 9/7/1
f 12/7/1 10/7/1 11/7/1
f 13/7/1 11/7/1 9/7/1
f 13/8/1 12/8/1 11/8/1
f 14/7/1 10/7/1 12/7/1
f 14/8/1 12/8/1 13/8/1
f 15/7/1 13/7/1 9/7/1
f 15/7/1 14/7/1 13/7/1
f 16/7/1 10/7/1 14/7/1
f 16/7/1 14/7/1 15/7/1
f 19/5/1 18/5/1 17/5/1
f 20/5/1 18/5/1 19/5/1
f 21/5/1 18/5/1 20/5/1
f 22/5/1 18/5/1 21/5/1
f 23/6/1 20/6/1 19/6/1
f 24/6/1 22/6/1 21/6/1
f 25/6/1 23/6/1 19/6/1
f 25/6/1 24/6/1 23/6/1
f 26/6/1 24/6/1 25/6/1
f 27/6/1 22/6/1 24/6/1
f 27/6/1 24/6/1 26/6/1
f 28/4/1 26/4/1 25/4/1
f 29/4/1 26/4/1 28/4/1
f 30/3/1 29/3/1 28/3/1
f 31/3/1 29/3/1 30/3/1
f 32/3/1 30/3/1 28/3/1
f 33/3/1 29/3/1 31/3/1
f 34/3/1 32/3/1 28/3/1
f 34/3/1 33/3/1 32/3/1
f 35/3/1 29/3/1 33/3/1
f 35/3/1 33/3/1 34/3/1
f 38/1/1 37/1/1 36/1/1
f 39/1/1 37/1/1 38/1/1
f 42/6/1 41/6/1 40/6/1
f 43/6/1 41/6/1 42/6/1
f 46/2/1 45/2/1 44/2/1
f 47/2/1 45/2/1 46/2/1
f 50/1/1 49/1/1 48/1/1
f 51/1/1 49/1/1 50/1/1
f 54/1/1 53/1/1 52/1/1
f 55/1/1 53/1/1 54/1/1
f 56/1/2 57/1/2 58/1/2
f 58/1/2 57/1/2 59/1/2
f 60/1/2 61/1/2 62/1/2
f 62/1/2 61/1/2 63/1/2
f 64/6/2 65/6/2 66/6/2
f 66/6/2 65/6/2 67/6/2
f 68/2/2 69/2/2 70/2/2
f 70/2/2 69/2/2 71/2/2
f 72/1/2 73/1/2 74/1/2
f 74/1/2 73/1/2 75/1/2
f 76/5/2 77/5/2 78/5/2
f 78/5/2 77/5/2 79/5/2
f 79/5/2 77/5/2 80/5/2
f 80/5/2 77/5/2 81/5/2
f 78/6/2 79/6/2 82/6/2
f 80/6/2 81/6/2 83/6/2
f 78/6/2 82/6/2 84/6/2
f 82/6/2 83/6/2 84/6/2
f 84/6/2 83/6/2 85/6/2
f 83/6/2 81/6/2 86/6/2
f 85/6/2 83/6/2 86/6/2
f 84/4/2 85/4/2 87/4/2
f 87/4/2 85/4/2 88/4/2
f 87/3/2 88/3/2 89/3/2
f 89/3/2 88/3/2 90/3/2
f 87/3/2 89/3/2 91/3/2
f 90/3/2 88/3/2 92/3/2
f 87/3/2 91/3/2 93/3/2
f 91/3/2 92/3/2 93/3/2
f 92/3/2 88/3/2 94/3/2
f 93/3/2 92/3/2 94/3/2
f 95/1/2 96/1/2 97/1/2
f 97/1/2 96/1/2 98/1/2
f 99/6/2 100/6/2 101/6/2
f 101/6/2 100/6/2 102/6/2
f 103/7/2 104/7/2 105/7/2
f 105/7/2 104/7/2 106/7/2
f 103/7/2 105/7/2 107/7/2
f 105/8/2 106/8/2 107/8/2
f 106/7/2 104/7/2 108/7/2
f 107/8/2 106/8/2 108/8/2
f 103/7/2 107/7/2 109/7/2
f 107/7/2 108/7/2 109/7/2
f 108/7/2 104/7/2 110/7/2
f 109/7/2 108/7/2 110/7/2
f 113/2/3 112/2/3 111/2/3
f 114/2/3 112/2/3 113/2/3
f 122/3/3 121/3/3 120/3/3
f 123/3/3 121/3/3 122/3/3
f 124/1/3 116/1/3 115/1/3
f 125/1/3 116/1/3 124/1/3
f 128/3/3 122/3/3 120/3/3
f 129/3/3 121/3/3 123/3/3
f 130/5/3 118/5/3 117/5/3
f 131/6/3 119/6/3 118/6/3
f 131/5/3 118/5/3 130/5/3
f 132/4/3 120/4/3 119/4/3
f 132/6/3 119/6/3 131/6/3
f 133/3/3 128/3/3 120/3/3
f 133/4/3 120/4/3 132/4/3
f 133/3/3 129/3/3 128/3/3
f 134/3/3 121/3/3 129/3/3
f 134/3/3 129/3/3 133/3/3
f 135/1/3 127/1/3 126/1/3
f 136/1/3 127/1/3 135/1/3
f 139/7/3 138/7/3 137/7/3
f 140/7/3 138/7/3 139/7/3
f 143/7/3 142/7/3 141/7/3
f 144/7/3 142/7/3 143/7/3
f 147/1/3 146/1/3 145/1/3
f 148/1/3 146/1/3 147/1/3
f 151/1/3 150/1/3 149/1/3
f 152/1/3 150/1/3 151/1/3
f 155/6/3 154/6/3 153/6/3
f 156/6/3 154/6/3 155/6/3
f 159/6/3 158/6/3 157/6/3
f 160/6/3 158/6/3 159/6/3
f 161/1/4 162/1/4 163/1/4
f 163/1/4 162/1/4 164/1/4
f 165/1/4 166/1/4 167/1/4
f 167/1/4 166/1/4 168/1/4
f 171/7/4 172/7/4 173/7/4
f 173/7/4 172/7/4 174/7/4
f 169/1/4 170/1/4 175/1/4
f 175/1/4 170/1/4 176/1/4
f 177/1/4 178/1/4 181/1/4
f 181/1/4 178/1/4 182/1/4
f 179/7/4 180/7/4 183/7/4
f 183/7/4 180/7/4 184/7/4
f 185/4/4 186/4/4 188/4/4
f 186/3/4 187/3/4 189/3/4
f 188/4/4 186/4/4 189/4/4
f 189/3/4 187/3/4 190/3/4
f 191/6/4 192/6/4 193/6/4
f 193/6/4 192/6/4 194/6/4
f 195/6/4 196/6/4 197/6/4
f 197/6/4 196/6/4 198/6/4
f 200/6/4 201/6/4 202/6/4
f 202/6/4 201/6/4 203/6/4
f 200/6/4 202/6/4 204/6/4
f 199/5/4 200/5/4 206/5/4
f 204/6/4 205/6/4 207/6/4
f 206/5/4 200/5/4 207/5/4
f 200/6/4 204/6/4 207/6/4
f 207/6/4 205/6/4 208/6/4
f 209/6/4 210/6/4 211/6/4
f 211/6/4 210/6/4 212/6/4
f 217/1/5 214/1/5 213/1/5
f 218/1/5 214/1/5 217/1/5
f 219/1/5 216/1/5 215/1/5
f 220/1/5 216/1/5 219/1/5
f 223/5/5 222/5/5 221/5/5
f 224/5/5 222/5/5 223/5/5
f 225/5/5 222/5/5 224/5/5
f 226/5/5 222/5/5 225/5/5
f 227/5/5 223/5/5 221/5/5
f 228/5/5 225/5/5 224/5/5
f 229/5/5 225/5/5 228/5/5
f 230/5/5 222/5/5 226/5/5
f 231/5/5 229/5/5 228/5/5
f 231/5/5 230/5/5 229/5/5
f 231/5/5 227/5/5 221/5/5
f 231/5/5 228/5/5 227/5/5
f 232/5/5 222/5/5 230/5/5
f 232/5/5 230/5/5 231/5/5
f 237/6/5 234/6/5 233/6/5
f 238/6/5 234/6/5 237/6/5
f 239/6/5 236/6/5 235/6/5
f 240/6/5 236/6/5 239/6/5
f 243/6/5 242/6/5 241/6/5
f 244/6/5 242/6/5 243/6/5
f 247/2/5 246/2/5 245/2/5
f 248/2/5 246/2/5 247/2/5
f 253/7/5 250/7/5 249/7/5
f 254/7/5 250/7/5 253/7/5
f 255/7/5 252/7/5 251/7/5
f 256/7/5 252/7/5 255/7/5
f 257/1/6 258/1/6 261/1/6
f 261/1/6 258/1/6 262/1/6
f 259/1/6 260/1/6 263/1/6
f 263/1/6 260/1/6 264/1/6
f 257/1/6 261/1/6 265/1/6
f 262/1/6 258/1/6 266/1/6
f 259/1/6 263/1/6 267/1/6
f 264/1/6 260/1/6 268/1/6
f 257/1/6 265/1/6 269/1/6
f 265/1/6 266/1/6 269/1/6
f 266/1/6 258/1/6 270/1/6
f 269/1/6 266/1/6 270/1/6
f 267/1/6 268/1/6 271/1/6
f 259/1/6 267/1/6 271/1/6
f 268/1/6 260/1/6 272/1/6
f 271/1/6 268/1/6 272/1/6
f 273/6/6 274/6/6 277/6/6
f 277/6/6 274/6/6 278/6/6
f 275/6/6 276/6/6 279/6/6
f 279/6/6 276/6/6 280/6/6
f 281/6/6 282/6/6 283/6/6
f 283/6/6 282/6/6 284/6/6
f 284/6/6 282/6/6 285/6/6
f 285/6/6 282/6/6 286/6/6
f 284/6/6 285/6/6 287/6/6
f 287/6/6 285/6/6 288/6/6
f 289/2/6 290/2/6 291/2/6
f 291/2/6 290/2/6 292/2/6
f 293/7/6 294/7/6 297/7/6
f 297/7/6 294/7/6 298/7/6
f 295/7/6 296/7/6 299/7/6
f 299/7/6 296/7/6 300/7/6
f 301/3/6 302/3/6 303/3/6
f 303/3/6 302/3/6 304/3/6
