# MagicaVoxel @ Ephtracy

# group
o 

# material
mtllib CrossyBus.mtl
usemtl palette

# normals
vn -1 0 0
vn 1 0 0
vn 0 0 1
vn 0 0 -1
vn 0 -1 0
vn 0 1 0

# texcoords
vt 0.00195312 0.5
vt 0.0644531 0.5
vt 0.404297 0.5
vt 0.427734 0.5
vt 0.708984 0.5
vt 0.732422 0.5
vt 0.927734 0.5
vt 0.982422 0.5
vt 0.990234 0.5
vt 0.994141 0.5

# verts
v -0.6 1.1 0.8
v -0.6 1.1 0.7
v -0.6 1.3 0.8
v -0.6 1.3 0.7
v -0.5 0.6 0.7
v -0.5 0.6 0.4
v -0.5 0.6 -0.2
v -0.5 0.6 -0.5
v -0.5 0.7 0.6
v -0.5 0.7 0.5
v -0.5 0.7 -0.3
v -0.5 0.7 -0.4
v -0.5 0.8 1.1
v -0.5 0.8 0.7
v -0.5 0.8 0.6
v -0.5 0.8 0.5
v -0.5 0.8 0.4
v -0.5 0.8 -0.2
v -0.5 0.8 -0.3
v -0.5 0.8 -0.4
v -0.5 0.8 -0.5
v -0.5 0.8 -1
v -0.5 0.9 0.7
v -0.5 0.9 0.4
v -0.5 0.9 -0.2
v -0.5 0.9 -0.5
v -0.5 1 1.1
v -0.5 1 1
v -0.5 1 -0.9
v -0.5 1 -1
v -0.5 1.1 1.1
v -0.5 1.1 1
v -0.5 1.1 0.8
v -0.5 1.1 0.7
v -0.5 1.1 -0.9
v -0.5 1.1 -1
v -0.5 1.2 1.1
v -0.5 1.2 0.8
v -0.5 1.2 0.7
v -0.5 1.2 0.4
v -0.5 1.2 0.3
v -0.5 1.2 0
v -0.5 1.2 -0.1
v -0.5 1.2 -0.4
v -0.5 1.2 -0.5
v -0.5 1.2 -0.9
v -0.5 1.2 -1
v -0.5 1.3 0.8
v -0.5 1.3 0.7
v -0.5 1.3 0.4
v -0.5 1.3 0.3
v -0.5 1.3 0
v -0.5 1.3 -0.1
v -0.5 1.3 -0.4
v -0.5 1.3 -0.5
v -0.5 1.3 -0.8
v -0.5 1.5 0.8
v -0.5 1.5 0.7
v -0.5 1.5 0.4
v -0.5 1.5 0.3
v -0.5 1.5 0
v -0.5 1.5 -0.1
v -0.5 1.5 -0.4
v -0.5 1.5 -0.5
v -0.5 1.5 -0.8
v -0.5 1.5 -0.9
v -0.5 1.5 -1
v -0.5 1.6 0.8
v -0.5 1.6 -1
v 0.2 0.6 0.7
v 0.2 0.6 0.4
v 0.2 0.6 -0.2
v 0.2 0.6 -0.5
v 0.2 0.7 0.6
v 0.2 0.7 0.5
v 0.2 0.7 -0.3
v 0.2 0.7 -0.4
v 0.2 0.8 0.7
v 0.2 0.8 0.6
v 0.2 0.8 0.5
v 0.2 0.8 0.4
v 0.2 0.8 -0.2
v 0.2 0.8 -0.3
v 0.2 0.8 -0.4
v 0.2 0.8 -0.5
v -0.4 0.6 0.7
v -0.4 0.6 0.4
v -0.4 0.6 -0.2
v -0.4 0.6 -0.5
v -0.4 0.7 0.6
v -0.4 0.7 0.5
v -0.4 0.7 -0.3
v -0.4 0.7 -0.4
v -0.4 0.8 0.7
v -0.4 0.8 0.6
v -0.4 0.8 0.5
v -0.4 0.8 0.4
v -0.4 0.8 -0.2
v -0.4 0.8 -0.3
v -0.4 0.8 -0.4
v -0.4 0.8 -0.5
v 0.3 0.6 0.7
v 0.3 0.6 0.4
v 0.3 0.6 -0.2
v 0.3 0.6 -0.5
v 0.3 0.7 0.6
v 0.3 0.7 0.5
v 0.3 0.7 -0.3
v 0.3 0.7 -0.4
v 0.3 0.8 1.1
v 0.3 0.8 0.7
v 0.3 0.8 0.6
v 0.3 0.8 0.5
v 0.3 0.8 0.4
v 0.3 0.8 -0.2
v 0.3 0.8 -0.3
v 0.3 0.8 -0.4
v 0.3 0.8 -0.5
v 0.3 0.8 -1
v 0.3 0.9 0.7
v 0.3 0.9 0.4
v 0.3 0.9 -0.2
v 0.3 0.9 -0.5
v 0.3 1 1.1
v 0.3 1 1
v 0.3 1 -0.9
v 0.3 1 -1
v 0.3 1.1 1.1
v 0.3 1.1 1
v 0.3 1.1 0.8
v 0.3 1.1 0.7
v 0.3 1.1 -0.9
v 0.3 1.1 -1
v 0.3 1.2 1.1
v 0.3 1.2 0.8
v 0.3 1.2 0.7
v 0.3 1.2 0.4
v 0.3 1.2 0.3
v 0.3 1.2 0
v 0.3 1.2 -0.1
v 0.3 1.2 -0.4
v 0.3 1.2 -0.5
v 0.3 1.2 -0.9
v 0.3 1.2 -1
v 0.3 1.3 0.8
v 0.3 1.3 0.7
v 0.3 1.3 0.4
v 0.3 1.5 0.8
v 0.3 1.5 0.7
v 0.3 1.5 0.4
v 0.3 1.5 0.3
v 0.3 1.5 0
v 0.3 1.5 -0.1
v 0.3 1.5 -0.4
v 0.3 1.5 -0.5
v 0.3 1.5 -0.9
v 0.3 1.5 -1
v 0.3 1.6 0.8
v 0.3 1.6 -1
v 0.4 1.1 0.8
v 0.4 1.1 0.7
v 0.4 1.3 0.8
v 0.4 1.3 0.7
v -0.5 0.8 1.1
v -0.5 1 1.1
v -0.5 1.1 1.1
v -0.5 1.2 1.1
v -0.4 0.8 1.1
v -0.4 0.9 1.1
v -0.3 1 1.1
v -0.3 1.1 1.1
v 0.1 1 1.1
v 0.1 1.1 1.1
v 0.2 0.8 1.1
v 0.2 0.9 1.1
v 0.3 0.8 1.1
v 0.3 1 1.1
v 0.3 1.1 1.1
v 0.3 1.2 1.1
v -0.6 1.1 0.8
v -0.6 1.3 0.8
v -0.5 1.1 0.8
v -0.5 1.2 0.8
v -0.5 1.3 0.8
v -0.5 1.5 0.8
v -0.5 1.6 0.8
v -0.4 1.2 0.8
v -0.4 1.5 0.8
v -0.4 1.6 0.8
v -0.3 1.5 0.8
v -0.3 1.6 0.8
v 0.1 1.5 0.8
v 0.1 1.6 0.8
v 0.2 1.2 0.8
v 0.2 1.5 0.8
v 0.2 1.6 0.8
v 0.3 1.1 0.8
v 0.3 1.2 0.8
v 0.3 1.3 0.8
v 0.3 1.5 0.8
v 0.3 1.6 0.8
v 0.4 1.1 0.8
v 0.4 1.3 0.8
v -0.5 0.6 0.7
v -0.5 0.8 0.7
v -0.4 0.6 0.7
v -0.4 0.8 0.7
v 0.2 0.6 0.7
v 0.2 0.8 0.7
v 0.3 0.6 0.7
v 0.3 0.8 0.7
v -0.5 0.6 -0.2
v -0.5 0.8 -0.2
v -0.4 0.6 -0.2
v -0.4 0.8 -0.2
v 0.2 0.6 -0.2
v 0.2 0.8 -0.2
v 0.3 0.6 -0.2
v 0.3 0.8 -0.2
v -0.6 1.1 0.7
v -0.6 1.3 0.7
v -0.5 1.1 0.7
v -0.5 1.2 0.7
v -0.5 1.3 0.7
v 0.3 1.1 0.7
v 0.3 1.2 0.7
v 0.3 1.3 0.7
v 0.4 1.1 0.7
v 0.4 1.3 0.7
v -0.5 0.6 0.4
v -0.5 0.8 0.4
v -0.4 0.6 0.4
v -0.4 0.8 0.4
v 0.2 0.6 0.4
v 0.2 0.8 0.4
v 0.3 0.6 0.4
v 0.3 0.8 0.4
v -0.5 0.6 -0.5
v -0.5 0.8 -0.5
v -0.4 0.6 -0.5
v -0.4 0.8 -0.5
v 0.2 0.6 -0.5
v 0.2 0.8 -0.5
v 0.3 0.6 -0.5
v 0.3 0.8 -0.5
v -0.5 0.8 -1
v -0.5 1 -1
v -0.5 1.1 -1
v -0.5 1.2 -1
v -0.5 1.5 -1
v -0.5 1.6 -1
v -0.4 1.2 -1
v -0.4 1.5 -1
v -0.3 1 -1
v -0.3 1.1 -1
v 0.1 1 -1
v 0.1 1.1 -1
v 0.2 1.2 -1
v 0.2 1.5 -1
v 0.3 0.8 -1
v 0.3 1 -1
v 0.3 1.1 -1
v 0.3 1.2 -1
v 0.3 1.5 -1
v 0.3 1.6 -1
v -0.5 0.6 0.7
v -0.4 0.6 0.7
v 0.2 0.6 0.7
v 0.3 0.6 0.7
v -0.5 0.6 0.4
v -0.4 0.6 0.4
v 0.2 0.6 0.4
v 0.3 0.6 0.4
v -0.5 0.6 -0.2
v -0.4 0.6 -0.2
v 0.2 0.6 -0.2
v 0.3 0.6 -0.2
v -0.5 0.6 -0.5
v -0.4 0.6 -0.5
v 0.2 0.6 -0.5
v 0.3 0.6 -0.5
v -0.5 0.8 1.1
v -0.4 0.8 1.1
v 0.2 0.8 1.1
v 0.3 0.8 1.1
v -0.4 0.8 1
v 0.2 0.8 1
v -0.5 0.8 0.7
v -0.4 0.8 0.7
v 0.2 0.8 0.7
v 0.3 0.8 0.7
v -0.4 0.8 0.6
v 0.2 0.8 0.6
v -0.4 0.8 0.5
v 0.2 0.8 0.5
v -0.5 0.8 0.4
v -0.4 0.8 0.4
v 0.2 0.8 0.4
v 0.3 0.8 0.4
v -0.5 0.8 -0.2
v -0.4 0.8 -0.2
v 0.2 0.8 -0.2
v 0.3 0.8 -0.2
v -0.4 0.8 -0.3
v 0.2 0.8 -0.3
v -0.4 0.8 -0.4
v 0.2 0.8 -0.4
v -0.5 0.8 -0.5
v -0.4 0.8 -0.5
v 0.2 0.8 -0.5
v 0.3 0.8 -0.5
v -0.5 0.8 -1
v 0.3 0.8 -1
v -0.6 1.1 0.8
v -0.5 1.1 0.8
v 0.3 1.1 0.8
v 0.4 1.1 0.8
v -0.6 1.1 0.7
v -0.5 1.1 0.7
v 0.3 1.1 0.7
v 0.4 1.1 0.7
v -0.5 1.2 1.1
v 0.3 1.2 1.1
v -0.5 1.2 0.8
v -0.4 1.2 0.8
v 0.2 1.2 0.8
v 0.3 1.2 0.8
v -0.6 1.3 0.8
v -0.5 1.3 0.8
v 0.3 1.3 0.8
v 0.4 1.3 0.8
v -0.6 1.3 0.7
v -0.5 1.3 0.7
v 0.3 1.3 0.7
v 0.4 1.3 0.7
v -0.5 1.6 0.8
v -0.4 1.6 0.8
v -0.3 1.6 0.8
v 0.1 1.6 0.8
v 0.2 1.6 0.8
v 0.3 1.6 0.8
v -0.4 1.6 0.7
v -0.3 1.6 0.7
v 0.1 1.6 0.7
v 0.2 1.6 0.7
v -0.5 1.6 -1
v 0.3 1.6 -1

# faces
f 3/7/1 2/7/1 1/7/1
f 4/7/1 2/7/1 3/7/1
f 9/9/1 6/9/1 5/9/1
f 10/9/1 6/9/1 9/9/1
f 11/9/1 8/9/1 7/9/1
f 12/9/1 8/9/1 11/9/1
f 14/9/1 9/9/1 5/9/1
f 15/8/1 10/8/1 9/8/1
f 15/9/1 9/9/1 14/9/1
f 16/9/1 6/9/1 10/9/1
f 16/8/1 10/8/1 15/8/1
f 17/9/1 6/9/1 16/9/1
f 18/9/1 11/9/1 7/9/1
f 19/8/1 12/8/1 11/8/1
f 19/9/1 11/9/1 18/9/1
f 20/9/1 8/9/1 12/9/1
f 20/8/1 12/8/1 19/8/1
f 21/9/1 8/9/1 20/9/1
f 23/9/1 15/9/1 14/9/1
f 23/4/1 14/4/1 13/4/1
f 23/9/1 17/9/1 16/9/1
f 23/9/1 16/9/1 15/9/1
f 24/4/1 18/4/1 17/4/1
f 24/9/1 17/9/1 23/9/1
f 25/9/1 19/9/1 18/9/1
f 25/4/1 18/4/1 24/4/1
f 25/9/1 21/9/1 20/9/1
f 25/9/1 20/9/1 19/9/1
f 26/4/1 22/4/1 21/4/1
f 26/9/1 21/9/1 25/9/1
f 27/4/1 25/4/1 24/4/1
f 27/4/1 24/4/1 23/4/1
f 27/4/1 26/4/1 25/4/1
f 27/4/1 23/4/1 13/4/1
f 28/4/1 26/4/1 27/4/1
f 29/4/1 22/4/1 26/4/1
f 29/4/1 26/4/1 28/4/1
f 30/4/1 22/4/1 29/4/1
f 31/1/1 28/1/1 27/1/1
f 32/10/1 29/10/1 28/10/1
f 32/1/1 28/1/1 31/1/1
f 33/10/1 29/10/1 32/10/1
f 34/10/1 29/10/1 33/10/1
f 35/2/1 30/2/1 29/2/1
f 35/10/1 29/10/1 34/10/1
f 36/2/1 30/2/1 35/2/1
f 37/4/1 32/4/1 31/4/1
f 37/4/1 33/4/1 32/4/1
f 38/4/1 33/4/1 37/4/1
f 39/4/1 36/4/1 35/4/1
f 39/4/1 35/4/1 34/4/1
f 40/4/1 36/4/1 39/4/1
f 41/4/1 36/4/1 40/4/1
f 42/4/1 36/4/1 41/4/1
f 43/4/1 36/4/1 42/4/1
f 44/4/1 36/4/1 43/4/1
f 45/4/1 36/4/1 44/4/1
f 46/4/1 36/4/1 45/4/1
f 47/4/1 36/4/1 46/4/1
f 49/6/1 40/6/1 39/6/1
f 50/10/1 41/10/1 40/10/1
f 50/6/1 40/6/1 49/6/1
f 51/6/1 42/6/1 41/6/1
f 51/10/1 41/10/1 50/10/1
f 52/10/1 43/10/1 42/10/1
f 52/6/1 42/6/1 51/6/1
f 53/6/1 44/6/1 43/6/1
f 53/10/1 43/10/1 52/10/1
f 54/10/1 45/10/1 44/10/1
f 54/6/1 44/6/1 53/6/1
f 55/6/1 46/6/1 45/6/1
f 55/10/1 45/10/1 54/10/1
f 56/6/1 46/6/1 55/6/1
f 57/10/1 49/10/1 48/10/1
f 58/5/1 50/5/1 49/5/1
f 58/10/1 49/10/1 57/10/1
f 59/10/1 51/10/1 50/10/1
f 59/5/1 50/5/1 58/5/1
f 60/5/1 52/5/1 51/5/1
f 60/10/1 51/10/1 59/10/1
f 61/10/1 53/10/1 52/10/1
f 61/5/1 52/5/1 60/5/1
f 62/5/1 54/5/1 53/5/1
f 62/10/1 53/10/1 61/10/1
f 63/10/1 55/10/1 54/10/1
f 63/5/1 54/5/1 62/5/1
f 64/5/1 56/5/1 55/5/1
f 64/10/1 55/10/1 63/10/1
f 65/6/1 46/6/1 56/6/1
f 65/5/1 56/5/1 64/5/1
f 66/10/1 47/10/1 46/10/1
f 66/6/1 46/6/1 65/6/1
f 67/10/1 47/10/1 66/10/1
f 68/4/1 65/4/1 64/4/1
f 68/4/1 64/4/1 63/4/1
f 68/4/1 67/4/1 66/4/1
f 68/4/1 66/4/1 65/4/1
f 68/4/1 63/4/1 62/4/1
f 68/4/1 62/4/1 61/4/1
f 68/4/1 58/4/1 57/4/1
f 68/4/1 61/4/1 60/4/1
f 68/4/1 60/4/1 59/4/1
f 68/4/1 59/4/1 58/4/1
f 69/4/1 67/4/1 68/4/1
f 74/9/1 71/9/1 70/9/1
f 75/9/1 71/9/1 74/9/1
f 76/9/1 73/9/1 72/9/1
f 77/9/1 73/9/1 76/9/1
f 78/9/1 74/9/1 70/9/1
f 79/8/1 75/8/1 74/8/1
f 79/9/1 74/9/1 78/9/1
f 80/9/1 71/9/1 75/9/1
f 80/8/1 75/8/1 79/8/1
f 81/9/1 71/9/1 80/9/1
f 82/9/1 76/9/1 72/9/1
f 83/8/1 77/8/1 76/8/1
f 83/9/1 76/9/1 82/9/1
f 84/9/1 73/9/1 77/9/1
f 84/8/1 77/8/1 83/8/1
f 85/9/1 73/9/1 84/9/1
f 86/9/2 87/9/2 90/9/2
f 90/9/2 87/9/2 91/9/2
f 88/9/2 89/9/2 92/9/2
f 92/9/2 89/9/2 93/9/2
f 86/9/2 90/9/2 94/9/2
f 90/8/2 91/8/2 95/8/2
f 94/9/2 90/9/2 95/9/2
f 91/9/2 87/9/2 96/9/2
f 95/8/2 91/8/2 96/8/2
f 96/9/2 87/9/2 97/9/2
f 88/9/2 92/9/2 98/9/2
f 92/8/2 93/8/2 99/8/2
f 98/9/2 92/9/2 99/9/2
f 93/9/2 89/9/2 100/9/2
f 99/8/2 93/8/2 100/8/2
f 100/9/2 89/9/2 101/9/2
f 102/9/2 103/9/2 106/9/2
f 106/9/2 103/9/2 107/9/2
f 104/9/2 105/9/2 108/9/2
f 108/9/2 105/9/2 109/9/2
f 102/9/2 106/9/2 111/9/2
f 106/8/2 107/8/2 112/8/2
f 111/9/2 106/9/2 112/9/2
f 107/9/2 103/9/2 113/9/2
f 112/8/2 107/8/2 113/8/2
f 113/9/2 103/9/2 114/9/2
f 104/9/2 108/9/2 115/9/2
f 108/8/2 109/8/2 116/8/2
f 115/9/2 108/9/2 116/9/2
f 109/9/2 105/9/2 117/9/2
f 116/8/2 109/8/2 117/8/2
f 117/9/2 105/9/2 118/9/2
f 111/9/2 112/9/2 120/9/2
f 110/4/2 111/4/2 120/4/2
f 113/9/2 114/9/2 120/9/2
f 112/9/2 113/9/2 120/9/2
f 114/4/2 115/4/2 121/4/2
f 120/9/2 114/9/2 121/9/2
f 115/9/2 116/9/2 122/9/2
f 121/4/2 115/4/2 122/4/2
f 117/9/2 118/9/2 122/9/2
f 116/9/2 117/9/2 122/9/2
f 118/4/2 119/4/2 123/4/2
f 122/9/2 118/9/2 123/9/2
f 121/4/2 122/4/2 124/4/2
f 120/4/2 121/4/2 124/4/2
f 122/4/2 123/4/2 124/4/2
f 110/4/2 120/4/2 124/4/2
f 124/4/2 123/4/2 125/4/2
f 123/4/2 119/4/2 126/4/2
f 125/4/2 123/4/2 126/4/2
f 126/4/2 119/4/2 127/4/2
f 124/1/2 125/1/2 128/1/2
f 125/10/2 126/10/2 129/10/2
f 128/1/2 125/1/2 129/1/2
f 129/10/2 126/10/2 130/10/2
f 130/10/2 126/10/2 131/10/2
f 126/2/2 127/2/2 132/2/2
f 131/10/2 126/10/2 132/10/2
f 132/2/2 127/2/2 133/2/2
f 128/4/2 129/4/2 134/4/2
f 129/4/2 130/4/2 134/4/2
f 134/4/2 130/4/2 135/4/2
f 132/4/2 133/4/2 136/4/2
f 131/4/2 132/4/2 136/4/2
f 136/4/2 133/4/2 137/4/2
f 137/4/2 133/4/2 138/4/2
f 138/4/2 133/4/2 139/4/2
f 139/4/2 133/4/2 140/4/2
f 140/4/2 133/4/2 141/4/2
f 141/4/2 133/4/2 142/4/2
f 142/4/2 133/4/2 143/4/2
f 143/4/2 133/4/2 144/4/2
f 136/6/2 137/6/2 146/6/2
f 137/10/2 138/10/2 147/10/2
f 146/6/2 137/6/2 147/6/2
f 145/10/2 146/10/2 148/10/2
f 146/5/2 147/5/2 149/5/2
f 148/10/2 146/10/2 149/10/2
f 147/10/2 138/10/2 150/10/2
f 149/5/2 147/5/2 150/5/2
f 138/6/2 139/6/2 151/6/2
f 150/10/2 138/10/2 151/10/2
f 139/10/2 140/10/2 152/10/2
f 151/6/2 139/6/2 152/6/2
f 140/6/2 141/6/2 153/6/2
f 152/10/2 140/10/2 153/10/2
f 141/10/2 142/10/2 154/10/2
f 153/6/2 141/6/2 154/6/2
f 142/6/2 143/6/2 155/6/2
f 154/10/2 142/10/2 155/10/2
f 143/10/2 144/10/2 156/10/2
f 155/6/2 143/6/2 156/6/2
f 156/10/2 144/10/2 157/10/2
f 154/4/2 155/4/2 158/4/2
f 148/4/2 149/4/2 158/4/2
f 156/4/2 157/4/2 158/4/2
f 155/4/2 156/4/2 158/4/2
f 149/4/2 150/4/2 158/4/2
f 150/4/2 151/4/2 158/4/2
f 153/4/2 154/4/2 158/4/2
f 152/4/2 153/4/2 158/4/2
f 151/4/2 152/4/2 158/4/2
f 158/4/2 157/4/2 159/4/2
f 160/7/2 161/7/2 162/7/2
f 162/7/2 161/7/2 163/7/2
f 168/4/3 165/4/3 164/4/3
f 169/4/3 165/4/3 168/4/3
f 170/1/3 166/1/3 165/1/3
f 170/4/3 165/4/3 169/4/3
f 171/4/3 167/4/3 166/4/3
f 171/1/3 166/1/3 170/1/3
f 172/4/3 170/4/3 169/4/3
f 172/4/3 171/4/3 170/4/3
f 173/4/3 167/4/3 171/4/3
f 173/4/3 171/4/3 172/4/3
f 174/10/3 169/10/3 168/10/3
f 175/4/3 172/4/3 169/4/3
f 175/10/3 169/10/3 174/10/3
f 176/4/3 175/4/3 174/4/3
f 177/1/3 173/1/3 172/1/3
f 177/4/3 175/4/3 176/4/3
f 177/4/3 172/4/3 175/4/3
f 178/4/3 167/4/3 173/4/3
f 178/1/3 173/1/3 177/1/3
f 179/4/3 167/4/3 178/4/3
f 182/7/3 181/7/3 180/7/3
f 183/7/3 181/7/3 182/7/3
f 184/7/3 181/7/3 183/7/3
f 187/10/3 184/10/3 183/10/3
f 187/10/3 185/10/3 184/10/3
f 188/4/3 186/4/3 185/4/3
f 188/10/3 185/10/3 187/10/3
f 189/4/3 186/4/3 188/4/3
f 190/5/3 188/5/3 187/5/3
f 190/2/3 189/2/3 188/2/3
f 191/2/3 189/2/3 190/2/3
f 192/5/3 190/5/3 187/5/3
f 192/4/3 191/4/3 190/4/3
f 193/4/3 191/4/3 192/4/3
f 194/5/3 192/5/3 187/5/3
f 195/2/3 193/2/3 192/2/3
f 195/5/3 192/5/3 194/5/3
f 196/2/3 193/2/3 195/2/3
f 198/10/3 195/10/3 194/10/3
f 199/10/3 195/10/3 198/10/3
f 200/4/3 196/4/3 195/4/3
f 200/10/3 195/10/3 199/10/3
f 201/4/3 196/4/3 200/4/3
f 202/7/3 199/7/3 198/7/3
f 202/7/3 198/7/3 197/7/3
f 203/7/3 199/7/3 202/7/3
f 206/9/3 205/9/3 204/9/3
f 207/9/3 205/9/3 206/9/3
f 210/9/3 209/9/3 208/9/3
f 211/9/3 209/9/3 210/9/3
f 214/9/3 213/9/3 212/9/3
f 215/9/3 213/9/3 214/9/3
f 218/9/3 217/9/3 216/9/3
f 219/9/3 217/9/3 218/9/3
f 220/7/4 221/7/4 222/7/4
f 222/7/4 221/7/4 223/7/4
f 223/7/4 221/7/4 224/7/4
f 225/7/4 226/7/4 228/7/4
f 226/7/4 227/7/4 228/7/4
f 228/7/4 227/7/4 229/7/4
f 230/9/4 231/9/4 232/9/4
f 232/9/4 231/9/4 233/9/4
f 234/9/4 235/9/4 236/9/4
f 236/9/4 235/9/4 237/9/4
f 238/9/4 239/9/4 240/9/4
f 240/9/4 239/9/4 241/9/4
f 242/9/4 243/9/4 244/9/4
f 244/9/4 243/9/4 245/9/4
f 248/4/4 249/4/4 252/4/4
f 249/10/4 250/10/4 252/10/4
f 250/4/4 251/4/4 253/4/4
f 252/10/4 250/10/4 253/10/4
f 246/4/4 247/4/4 254/4/4
f 247/2/4 248/2/4 254/2/4
f 248/4/4 252/4/4 255/4/4
f 254/2/4 248/2/4 255/2/4
f 246/4/4 254/4/4 256/4/4
f 254/4/4 255/4/4 256/4/4
f 255/4/4 252/4/4 257/4/4
f 256/4/4 255/4/4 257/4/4
f 252/6/4 253/6/4 258/6/4
f 257/4/4 252/4/4 258/4/4
f 253/4/4 251/4/4 259/4/4
f 258/6/4 253/6/4 259/6/4
f 246/4/4 256/4/4 260/4/4
f 256/2/4 257/2/4 261/2/4
f 260/4/4 256/4/4 261/4/4
f 257/4/4 258/4/4 262/4/4
f 261/2/4 257/2/4 262/2/4
f 258/10/4 259/10/4 263/10/4
f 262/4/4 258/4/4 263/4/4
f 259/4/4 251/4/4 264/4/4
f 263/10/4 259/10/4 264/10/4
f 264/4/4 251/4/4 265/4/4
f 270/9/5 267/9/5 266/9/5
f 271/9/5 267/9/5 270/9/5
f 272/9/5 269/9/5 268/9/5
f 273/9/5 269/9/5 272/9/5
f 278/9/5 275/9/5 274/9/5
f 279/9/5 275/9/5 278/9/5
f 280/9/5 277/9/5 276/9/5
f 281/9/5 277/9/5 280/9/5
f 286/4/5 283/4/5 282/4/5
f 286/10/5 284/10/5 283/10/5
f 287/4/5 285/4/5 284/4/5
f 287/10/5 284/10/5 286/10/5
f 288/4/5 286/4/5 282/4/5
f 288/4/5 287/4/5 286/4/5
f 289/4/5 287/4/5 288/4/5
f 290/4/5 285/4/5 287/4/5
f 290/4/5 287/4/5 289/4/5
f 291/4/5 285/4/5 290/4/5
f 292/4/5 290/4/5 289/4/5
f 293/4/5 290/4/5 292/4/5
f 294/4/5 293/4/5 292/4/5
f 295/4/5 293/4/5 294/4/5
f 297/4/5 295/4/5 294/4/5
f 298/4/5 295/4/5 297/4/5
f 300/4/5 298/4/5 297/4/5
f 300/4/5 299/4/5 298/4/5
f 300/4/5 297/4/5 296/4/5
f 301/4/5 299/4/5 300/4/5
f 302/4/5 299/4/5 301/4/5
f 303/4/5 299/4/5 302/4/5
f 304/4/5 302/4/5 301/4/5
f 305/4/5 302/4/5 304/4/5
f 306/4/5 305/4/5 304/4/5
f 307/4/5 305/4/5 306/4/5
f 309/4/5 307/4/5 306/4/5
f 310/4/5 307/4/5 309/4/5
f 312/4/5 310/4/5 309/4/5
f 312/4/5 311/4/5 310/4/5
f 312/4/5 309/4/5 308/4/5
f 313/4/5 311/4/5 312/4/5
f 318/7/5 315/7/5 314/7/5
f 319/7/5 315/7/5 318/7/5
f 320/7/5 317/7/5 316/7/5
f 321/7/5 317/7/5 320/7/5
f 322/4/6 323/4/6 324/4/6
f 324/4/6 323/4/6 325/4/6
f 325/4/6 323/4/6 326/4/6
f 326/4/6 323/4/6 327/4/6
f 328/7/6 329/7/6 332/7/6
f 332/7/6 329/7/6 333/7/6
f 330/7/6 331/7/6 334/7/6
f 334/7/6 331/7/6 335/7/6
f 336/4/6 337/4/6 342/4/6
f 337/2/6 338/2/6 342/2/6
f 338/4/6 339/4/6 343/4/6
f 342/2/6 338/2/6 343/2/6
f 339/2/6 340/2/6 344/2/6
f 343/4/6 339/4/6 344/4/6
f 340/4/6 341/4/6 345/4/6
f 344/2/6 340/2/6 345/2/6
f 343/4/6 344/4/6 346/4/6
f 342/4/6 343/4/6 346/4/6
f 344/4/6 345/4/6 346/4/6
f 336/4/6 342/4/6 346/4/6
f 345/4/6 341/4/6 347/4/6
f 346/4/6 345/4/6 347/4/6
