# MagicaVoxel @ Ephtracy

# group
o 

# material
mtllib CrossyTaxi.mtl
usemtl palette

# normals
vn -1 0 0
vn 1 0 0
vn 0 0 1
vn 0 0 -1
vn 0 -1 0
vn 0 1 0

# texcoords
vt 0.146484 0.5
vt 0.419922 0.5
vt 0.427734 0.5
vt 0.482422 0.5
vt 0.494141 0.5
vt 0.919922 0.5
vt 0.927734 0.5
vt 0.958984 0.5
vt 0.982422 0.5
vt 0.990234 0.5
vt 0.994141 0.5

# verts
v -0.6 0.4 0.5
v -0.6 0.4 0.3
v -0.6 0.5 0.5
v -0.6 0.5 0.3
v -0.5 0 0.5
v -0.5 0 0.2
v -0.5 0 -0.4
v -0.5 0 -0.7
v -0.5 0.1 0.9
v -0.5 0.1 0.5
v -0.5 0.1 0.4
v -0.5 0.1 0.3
v -0.5 0.1 0.2
v -0.5 0.1 -0.4
v -0.5 0.1 -0.5
v -0.5 0.1 -0.6
v -0.5 0.1 -0.7
v -0.5 0.1 -0.8
v -0.5 0.2 0.9
v -0.5 0.2 0.5
v -0.5 0.2 0.4
v -0.5 0.2 0.3
v -0.5 0.2 0.2
v -0.5 0.2 -0.4
v -0.5 0.2 -0.5
v -0.5 0.2 -0.6
v -0.5 0.2 -0.7
v -0.5 0.2 -0.8
v -0.5 0.3 0.9
v -0.5 0.3 0.5
v -0.5 0.3 0.2
v -0.5 0.3 -0.4
v -0.5 0.3 -0.7
v -0.5 0.3 -0.8
v -0.5 0.4 0.5
v -0.5 0.4 0.3
v -0.5 0.5 0.9
v -0.5 0.5 0.5
v -0.5 0.5 0.3
v -0.5 0.5 -0.8
v -0.4 0.5 0.4
v -0.4 0.5 0.3
v -0.4 0.5 -0.1
v -0.4 0.5 -0.2
v -0.4 0.5 -0.4
v -0.4 0.5 -0.5
v -0.4 0.7 0.3
v -0.4 0.7 -0.1
v -0.4 0.7 -0.2
v -0.4 0.7 -0.4
v -0.4 0.8 0.4
v -0.4 0.8 -0.5
v -0.3 0.8 0.2
v -0.3 0.8 0
v -0.3 0.9 0.2
v -0.3 0.9 0
v 0.2 0 0.5
v 0.2 0 0.2
v 0.2 0 -0.4
v 0.2 0 -0.7
v 0.2 0.1 0.5
v 0.2 0.1 0.2
v 0.2 0.1 -0.4
v 0.2 0.1 -0.7
v -0.4 0 0.5
v -0.4 0 0.2
v -0.4 0 -0.4
v -0.4 0 -0.7
v -0.4 0.1 0.5
v -0.4 0.1 0.2
v -0.4 0.1 -0.4
v -0.4 0.1 -0.7
v 0.1 0.8 0.2
v 0.1 0.8 0
v 0.1 0.9 0.2
v 0.1 0.9 0
v 0.2 0.5 0.4
v 0.2 0.5 0.3
v 0.2 0.5 -0.1
v 0.2 0.5 -0.2
v 0.2 0.5 -0.4
v 0.2 0.5 -0.5
v 0.2 0.7 0.3
v 0.2 0.7 -0.1
v 0.2 0.7 -0.2
v 0.2 0.7 -0.4
v 0.2 0.8 0.4
v 0.2 0.8 -0.5
v 0.3 0 0.5
v 0.3 0 0.2
v 0.3 0 -0.4
v 0.3 0 -0.7
v 0.3 0.1 0.9
v 0.3 0.1 0.5
v 0.3 0.1 0.4
v 0.3 0.1 0.3
v 0.3 0.1 0.2
v 0.3 0.1 -0.4
v 0.3 0.1 -0.5
v 0.3 0.1 -0.6
v 0.3 0.1 -0.7
v 0.3 0.1 -0.8
v 0.3 0.2 0.9
v 0.3 0.2 0.5
v 0.3 0.2 0.4
v 0.3 0.2 0.3
v 0.3 0.2 0.2
v 0.3 0.2 -0.4
v 0.3 0.2 -0.5
v 0.3 0.2 -0.6
v 0.3 0.2 -0.7
v 0.3 0.2 -0.8
v 0.3 0.3 0.9
v 0.3 0.3 0.5
v 0.3 0.3 0.2
v 0.3 0.3 -0.4
v 0.3 0.3 -0.7
v 0.3 0.3 -0.8
v 0.3 0.4 0.5
v 0.3 0.4 0.3
v 0.3 0.5 0.9
v 0.3 0.5 0.5
v 0.3 0.5 0.3
v 0.3 0.5 -0.8
v 0.4 0.4 0.5
v 0.4 0.4 0.3
v 0.4 0.5 0.5
v 0.4 0.5 0.3
v -0.5 0.1 0.9
v -0.5 0.2 0.9
v -0.5 0.3 0.9
v -0.5 0.5 0.9
v -0.4 0.3 0.9
v -0.4 0.4 0.9
v -0.3 0.3 0.9
v -0.3 0.4 0.9
v -0.2 0.3 0.9
v -0.2 0.5 0.9
v 5.96046e-08 0.3 0.9
v 5.96046e-08 0.5 0.9
v 0.1 0.3 0.9
v 0.1 0.4 0.9
v 0.2 0.3 0.9
v 0.2 0.4 0.9
v 0.3 0.1 0.9
v 0.3 0.2 0.9
v 0.3 0.3 0.9
v 0.3 0.5 0.9
v -0.6 0.4 0.5
v -0.6 0.5 0.5
v -0.5 0 0.5
v -0.5 0.1 0.5
v -0.5 0.4 0.5
v -0.5 0.5 0.5
v -0.4 0 0.5
v -0.4 0.1 0.5
v 0.2 0 0.5
v 0.2 0.1 0.5
v 0.3 0 0.5
v 0.3 0.1 0.5
v 0.3 0.4 0.5
v 0.3 0.5 0.5
v 0.4 0.4 0.5
v 0.4 0.5 0.5
v -0.4 0.5 0.4
v -0.4 0.8 0.4
v -0.3 0.5 0.4
v -0.3 0.7 0.4
v -0.2 0.5 0.4
v 5.96046e-08 0.5 0.4
v 0.1 0.5 0.4
v 0.1 0.7 0.4
v 0.2 0.5 0.4
v 0.2 0.8 0.4
v -0.3 0.8 0.2
v -0.3 0.9 0.2
v 0.1 0.8 0.2
v 0.1 0.9 0.2
v -0.5 0 -0.4
v -0.5 0.1 -0.4
v -0.4 0 -0.4
v -0.4 0.1 -0.4
v 0.2 0 -0.4
v 0.2 0.1 -0.4
v 0.3 0 -0.4
v 0.3 0.1 -0.4
v -0.6 0.4 0.3
v -0.6 0.5 0.3
v -0.5 0.4 0.3
v -0.5 0.5 0.3
v 0.3 0.4 0.3
v 0.3 0.5 0.3
v 0.4 0.4 0.3
v 0.4 0.5 0.3
v -0.5 0 0.2
v -0.5 0.1 0.2
v -0.4 0 0.2
v -0.4 0.1 0.2
v 0.2 0 0.2
v 0.2 0.1 0.2
v 0.3 0 0.2
v 0.3 0.1 0.2
v -0.3 0.8 0
v -0.3 0.9 0
v 0.1 0.8 0
v 0.1 0.9 0
v -0.4 0.5 -0.5
v -0.4 0.8 -0.5
v -0.2 0.5 -0.5
v 5.96046e-08 0.5 -0.5
v 0.2 0.5 -0.5
v 0.2 0.8 -0.5
v -0.5 0 -0.7
v -0.5 0.1 -0.7
v -0.4 0 -0.7
v -0.4 0.1 -0.7
v 0.2 0 -0.7
v 0.2 0.1 -0.7
v 0.3 0 -0.7
v 0.3 0.1 -0.7
v -0.5 0.1 -0.8
v -0.5 0.2 -0.8
v -0.5 0.3 -0.8
v -0.5 0.5 -0.8
v -0.4 0.3 -0.8
v -0.4 0.4 -0.8
v -0.3 0.3 -0.8
v -0.3 0.4 -0.8
v -0.2 0.3 -0.8
v -0.2 0.5 -0.8
v 5.96046e-08 0.3 -0.8
v 5.96046e-08 0.5 -0.8
v 0.1 0.3 -0.8
v 0.1 0.4 -0.8
v 0.2 0.3 -0.8
v 0.2 0.4 -0.8
v 0.3 0.1 -0.8
v 0.3 0.2 -0.8
v 0.3 0.3 -0.8
v 0.3 0.5 -0.8
v -0.5 0 0.5
v -0.4 0 0.5
v 0.2 0 0.5
v 0.3 0 0.5
v -0.5 0 0.2
v -0.4 0 0.2
v 0.2 0 0.2
v 0.3 0 0.2
v -0.5 0 -0.4
v -0.4 0 -0.4
v 0.2 0 -0.4
v 0.3 0 -0.4
v -0.5 0 -0.7
v -0.4 0 -0.7
v 0.2 0 -0.7
v 0.3 0 -0.7
v -0.5 0.1 0.9
v 0.3 0.1 0.9
v -0.4 0.1 0.7
v 0.2 0.1 0.7
v -0.5 0.1 0.5
v -0.4 0.1 0.5
v 0.2 0.1 0.5
v 0.3 0.1 0.5
v -0.5 0.1 0.2
v -0.4 0.1 0.2
v 0.2 0.1 0.2
v 0.3 0.1 0.2
v -0.5 0.1 -0.4
v -0.4 0.1 -0.4
v 0.2 0.1 -0.4
v 0.3 0.1 -0.4
v -0.5 0.1 -0.7
v -0.4 0.1 -0.7
v 0.2 0.1 -0.7
v 0.3 0.1 -0.7
v -0.5 0.1 -0.8
v 0.3 0.1 -0.8
v -0.6 0.4 0.5
v -0.5 0.4 0.5
v 0.3 0.4 0.5
v 0.4 0.4 0.5
v -0.6 0.4 0.3
v -0.5 0.4 0.3
v 0.3 0.4 0.3
v 0.4 0.4 0.3
v -0.5 0.5 0.9
v -0.2 0.5 0.9
v 5.96046e-08 0.5 0.9
v 0.3 0.5 0.9
v -0.6 0.5 0.5
v -0.5 0.5 0.5
v 0.3 0.5 0.5
v 0.4 0.5 0.5
v -0.4 0.5 0.4
v -0.3 0.5 0.4
v -0.2 0.5 0.4
v 5.96046e-08 0.5 0.4
v 0.1 0.5 0.4
v 0.2 0.5 0.4
v -0.6 0.5 0.3
v -0.5 0.5 0.3
v -0.4 0.5 0.3
v 0.2 0.5 0.3
v 0.3 0.5 0.3
v 0.4 0.5 0.3
v -0.4 0.5 -0.1
v 0.2 0.5 -0.1
v -0.4 0.5 -0.2
v 0.2 0.5 -0.2
v -0.4 0.5 -0.4
v 0.2 0.5 -0.4
v -0.4 0.5 -0.5
v -0.2 0.5 -0.5
v 5.96046e-08 0.5 -0.5
v 0.2 0.5 -0.5
v -0.5 0.5 -0.8
v -0.2 0.5 -0.8
v 5.96046e-08 0.5 -0.8
v 0.3 0.5 -0.8
v -0.4 0.8 0.4
v 0.2 0.8 0.4
v -0.3 0.8 0.2
v 0.1 0.8 0.2
v -0.3 0.8 0
v 0.1 0.8 0
v -0.4 0.8 -0.5
v 0.2 0.8 -0.5
v -0.3 0.9 0.2
v 0.1 0.9 0.2
v -0.3 0.9 0
v 0.1 0.9 0

# faces
f 3/3/1 2/3/1 1/3/1
f 4/3/1 2/3/1 3/3/1
f 10/10/1 6/10/1 5/10/1
f 11/10/1 6/10/1 10/10/1
f 12/10/1 6/10/1 11/10/1
f 13/10/1 6/10/1 12/10/1
f 14/10/1 8/10/1 7/10/1
f 15/10/1 8/10/1 14/10/1
f 16/10/1 8/10/1 15/10/1
f 17/10/1 8/10/1 16/10/1
f 19/6/1 10/6/1 9/6/1
f 20/10/1 11/10/1 10/10/1
f 20/6/1 10/6/1 19/6/1
f 21/9/1 12/9/1 11/9/1
f 21/10/1 11/10/1 20/10/1
f 22/10/1 13/10/1 12/10/1
f 22/9/1 12/9/1 21/9/1
f 23/6/1 14/6/1 13/6/1
f 23/10/1 13/10/1 22/10/1
f 24/10/1 15/10/1 14/10/1
f 24/6/1 14/6/1 23/6/1
f 25/9/1 16/9/1 15/9/1
f 25/10/1 15/10/1 24/10/1
f 26/10/1 17/10/1 16/10/1
f 26/9/1 16/9/1 25/9/1
f 27/6/1 18/6/1 17/6/1
f 27/10/1 17/10/1 26/10/1
f 28/6/1 18/6/1 27/6/1
f 29/11/1 20/11/1 19/11/1
f 30/10/1 21/10/1 20/10/1
f 30/11/1 20/11/1 29/11/1
f 30/10/1 22/10/1 21/10/1
f 30/10/1 23/10/1 22/10/1
f 31/11/1 24/11/1 23/11/1
f 31/10/1 23/10/1 30/10/1
f 32/10/1 26/10/1 25/10/1
f 32/11/1 24/11/1 31/11/1
f 32/10/1 27/10/1 26/10/1
f 32/10/1 25/10/1 24/10/1
f 33/11/1 28/11/1 27/11/1
f 33/10/1 27/10/1 32/10/1
f 34/11/1 28/11/1 33/11/1
f 35/3/1 31/3/1 30/3/1
f 35/3/1 32/3/1 31/3/1
f 35/3/1 34/3/1 33/3/1
f 35/3/1 33/3/1 32/3/1
f 35/3/1 30/3/1 29/3/1
f 36/3/1 34/3/1 35/3/1
f 37/3/1 35/3/1 29/3/1
f 38/3/1 35/3/1 37/3/1
f 39/3/1 34/3/1 36/3/1
f 40/3/1 34/3/1 39/3/1
f 47/8/1 42/8/1 41/8/1
f 47/11/1 43/11/1 42/11/1
f 48/8/1 44/8/1 43/8/1
f 48/11/1 43/11/1 47/11/1
f 49/11/1 45/11/1 44/11/1
f 49/8/1 44/8/1 48/8/1
f 50/8/1 46/8/1 45/8/1
f 50/11/1 45/11/1 49/11/1
f 51/8/1 49/8/1 48/8/1
f 51/8/1 48/8/1 47/8/1
f 51/8/1 50/8/1 49/8/1
f 51/8/1 47/8/1 41/8/1
f 52/8/1 46/8/1 50/8/1
f 52/8/1 50/8/1 51/8/1
f 55/6/1 54/6/1 53/6/1
f 56/6/1 54/6/1 55/6/1
f 61/10/1 58/10/1 57/10/1
f 62/10/1 58/10/1 61/10/1
f 63/10/1 60/10/1 59/10/1
f 64/10/1 60/10/1 63/10/1
f 65/10/2 66/10/2 69/10/2
f 69/10/2 66/10/2 70/10/2
f 67/10/2 68/10/2 71/10/2
f 71/10/2 68/10/2 72/10/2
f 73/6/2 74/6/2 75/6/2
f 75/6/2 74/6/2 76/6/2
f 77/8/2 78/8/2 83/8/2
f 78/11/2 79/11/2 83/11/2
f 79/8/2 80/8/2 84/8/2
f 83/11/2 79/11/2 84/11/2
f 80/11/2 81/11/2 85/11/2
f 84/8/2 80/8/2 85/8/2
f 81/8/2 82/8/2 86/8/2
f 85/11/2 81/11/2 86/11/2
f 84/8/2 85/8/2 87/8/2
f 83/8/2 84/8/2 87/8/2
f 85/8/2 86/8/2 87/8/2
f 77/8/2 83/8/2 87/8/2
f 86/8/2 82/8/2 88/8/2
f 87/8/2 86/8/2 88/8/2
f 89/10/2 90/10/2 94/10/2
f 94/10/2 90/10/2 95/10/2
f 95/10/2 90/10/2 96/10/2
f 96/10/2 90/10/2 97/10/2
f 91/10/2 92/10/2 98/10/2
f 98/10/2 92/10/2 99/10/2
f 99/10/2 92/10/2 100/10/2
f 100/10/2 92/10/2 101/10/2
f 93/6/2 94/6/2 103/6/2
f 94/10/2 95/10/2 104/10/2
f 103/6/2 94/6/2 104/6/2
f 95/9/2 96/9/2 105/9/2
f 104/10/2 95/10/2 105/10/2
f 96/10/2 97/10/2 106/10/2
f 105/9/2 96/9/2 106/9/2
f 97/6/2 98/6/2 107/6/2
f 106/10/2 97/10/2 107/10/2
f 98/10/2 99/10/2 108/10/2
f 107/6/2 98/6/2 108/6/2
f 99/9/2 100/9/2 109/9/2
f 108/10/2 99/10/2 109/10/2
f 100/10/2 101/10/2 110/10/2
f 109/9/2 100/9/2 110/9/2
f 101/6/2 102/6/2 111/6/2
f 110/10/2 101/10/2 111/10/2
f 111/6/2 102/6/2 112/6/2
f 103/11/2 104/11/2 113/11/2
f 104/10/2 105/10/2 114/10/2
f 113/11/2 104/11/2 114/11/2
f 105/10/2 106/10/2 114/10/2
f 106/10/2 107/10/2 114/10/2
f 107/11/2 108/11/2 115/11/2
f 114/10/2 107/10/2 115/10/2
f 109/10/2 110/10/2 116/10/2
f 115/11/2 108/11/2 116/11/2
f 110/10/2 111/10/2 116/10/2
f 108/10/2 109/10/2 116/10/2
f 111/11/2 112/11/2 117/11/2
f 116/10/2 111/10/2 117/10/2
f 117/11/2 112/11/2 118/11/2
f 114/3/2 115/3/2 119/3/2
f 115/3/2 116/3/2 119/3/2
f 117/3/2 118/3/2 119/3/2
f 116/3/2 117/3/2 119/3/2
f 113/3/2 114/3/2 119/3/2
f 119/3/2 118/3/2 120/3/2
f 113/3/2 119/3/2 121/3/2
f 121/3/2 119/3/2 122/3/2
f 120/3/2 118/3/2 123/3/2
f 123/3/2 118/3/2 124/3/2
f 125/3/2 126/3/2 127/3/2
f 127/3/2 126/3/2 128/3/2
f 133/11/3 131/11/3 130/11/3
f 133/3/3 132/3/3 131/3/3
f 134/3/3 132/3/3 133/3/3
f 135/11/3 133/11/3 130/11/3
f 135/2/3 134/2/3 133/2/3
f 136/3/3 132/3/3 134/3/3
f 136/2/3 134/2/3 135/2/3
f 137/11/3 135/11/3 130/11/3
f 137/3/3 136/3/3 135/3/3
f 138/3/3 132/3/3 136/3/3
f 138/3/3 136/3/3 137/3/3
f 139/11/3 137/11/3 130/11/3
f 139/4/3 138/4/3 137/4/3
f 140/4/3 138/4/3 139/4/3
f 141/11/3 139/11/3 130/11/3
f 141/3/3 140/3/3 139/3/3
f 142/3/3 140/3/3 141/3/3
f 143/11/3 141/11/3 130/11/3
f 143/2/3 142/2/3 141/2/3
f 144/3/3 140/3/3 142/3/3
f 144/2/3 142/2/3 143/2/3
f 145/6/3 130/6/3 129/6/3
f 146/11/3 143/11/3 130/11/3
f 146/6/3 130/6/3 145/6/3
f 147/3/3 144/3/3 143/3/3
f 147/11/3 143/11/3 146/11/3
f 148/3/3 140/3/3 144/3/3
f 148/3/3 144/3/3 147/3/3
f 153/3/3 150/3/3 149/3/3
f 154/3/3 150/3/3 153/3/3
f 155/10/3 152/10/3 151/10/3
f 156/10/3 152/10/3 155/10/3
f 159/10/3 158/10/3 157/10/3
f 160/10/3 158/10/3 159/10/3
f 163/3/3 162/3/3 161/3/3
f 164/3/3 162/3/3 163/3/3
f 167/8/3 166/8/3 165/8/3
f 168/8/3 166/8/3 167/8/3
f 169/11/3 168/11/3 167/11/3
f 170/11/3 168/11/3 169/11/3
f 171/11/3 168/11/3 170/11/3
f 172/8/3 166/8/3 168/8/3
f 172/11/3 168/11/3 171/11/3
f 173/8/3 172/8/3 171/8/3
f 174/8/3 166/8/3 172/8/3
f 174/8/3 172/8/3 173/8/3
f 177/6/3 176/6/3 175/6/3
f 178/6/3 176/6/3 177/6/3
f 181/10/3 180/10/3 179/10/3
f 182/10/3 180/10/3 181/10/3
f 185/10/3 184/10/3 183/10/3
f 186/10/3 184/10/3 185/10/3
f 187/3/4 188/3/4 189/3/4
f 189/3/4 188/3/4 190/3/4
f 191/3/4 192/3/4 193/3/4
f 193/3/4 192/3/4 194/3/4
f 195/10/4 196/10/4 197/10/4
f 197/10/4 196/10/4 198/10/4
f 199/10/4 200/10/4 201/10/4
f 201/10/4 200/10/4 202/10/4
f 203/6/4 204/6/4 205/6/4
f 205/6/4 204/6/4 206/6/4
f 207/8/4 208/8/4 209/8/4
f 209/8/4 208/8/4 210/8/4
f 210/8/4 208/8/4 211/8/4
f 211/8/4 208/8/4 212/8/4
f 213/10/4 214/10/4 215/10/4
f 215/10/4 214/10/4 216/10/4
f 217/10/4 218/10/4 219/10/4
f 219/10/4 218/10/4 220/10/4
f 222/11/4 223/11/4 225/11/4
f 223/3/4 224/3/4 225/3/4
f 225/3/4 224/3/4 226/3/4
f 222/11/4 225/11/4 227/11/4
f 225/1/4 226/1/4 227/1/4
f 226/3/4 224/3/4 228/3/4
f 227/1/4 226/1/4 228/1/4
f 222/11/4 227/11/4 229/11/4
f 227/3/4 228/3/4 229/3/4
f 228/3/4 224/3/4 230/3/4
f 229/3/4 228/3/4 230/3/4
f 222/11/4 229/11/4 231/11/4
f 229/4/4 230/4/4 231/4/4
f 231/4/4 230/4/4 232/4/4
f 222/11/4 231/11/4 233/11/4
f 231/3/4 232/3/4 233/3/4
f 233/3/4 232/3/4 234/3/4
f 222/11/4 233/11/4 235/11/4
f 233/1/4 234/1/4 235/1/4
f 234/3/4 232/3/4 236/3/4
f 235/1/4 234/1/4 236/1/4
f 221/6/4 222/6/4 237/6/4
f 222/11/4 235/11/4 238/11/4
f 237/6/4 222/6/4 238/6/4
f 235/3/4 236/3/4 239/3/4
f 238/11/4 235/11/4 239/11/4
f 236/3/4 232/3/4 240/3/4
f 239/3/4 236/3/4 240/3/4
f 245/10/5 242/10/5 241/10/5
f 246/10/5 242/10/5 245/10/5
f 247/10/5 244/10/5 243/10/5
f 248/10/5 244/10/5 247/10/5
f 253/10/5 250/10/5 249/10/5
f 254/10/5 250/10/5 253/10/5
f 255/10/5 252/10/5 251/10/5
f 256/10/5 252/10/5 255/10/5
f 259/6/5 258/6/5 257/6/5
f 260/6/5 258/6/5 259/6/5
f 261/6/5 259/6/5 257/6/5
f 262/7/5 260/7/5 259/7/5
f 262/6/5 259/6/5 261/6/5
f 263/6/5 258/6/5 260/6/5
f 263/7/5 260/7/5 262/7/5
f 264/6/5 258/6/5 263/6/5
f 266/7/5 263/7/5 262/7/5
f 267/7/5 263/7/5 266/7/5
f 269/6/5 266/6/5 265/6/5
f 270/7/5 267/7/5 266/7/5
f 270/6/5 266/6/5 269/6/5
f 271/6/5 268/6/5 267/6/5
f 271/7/5 267/7/5 270/7/5
f 272/6/5 268/6/5 271/6/5
f 274/7/5 271/7/5 270/7/5
f 275/7/5 271/7/5 274/7/5
f 277/6/5 274/6/5 273/6/5
f 277/6/5 276/6/5 275/6/5
f 277/6/5 275/6/5 274/6/5
f 278/6/5 276/6/5 277/6/5
f 283/3/5 280/3/5 279/3/5
f 284/3/5 280/3/5 283/3/5
f 285/3/5 282/3/5 281/3/5
f 286/3/5 282/3/5 285/3/5
f 287/3/6 288/3/6 292/3/6
f 289/3/6 290/3/6 293/3/6
f 291/3/6 292/3/6 295/3/6
f 292/3/6 288/3/6 295/3/6
f 295/3/6 288/3/6 296/3/6
f 288/4/6 289/4/6 297/4/6
f 296/3/6 288/3/6 297/3/6
f 293/3/6 294/3/6 298/3/6
f 297/4/6 289/4/6 298/4/6
f 289/3/6 293/3/6 298/3/6
f 298/3/6 294/3/6 299/3/6
f 299/3/6 294/3/6 300/3/6
f 291/3/6 295/3/6 301/3/6
f 301/3/6 295/3/6 302/3/6
f 302/3/6 295/3/6 303/3/6
f 300/3/6 294/3/6 304/3/6
f 304/3/6 294/3/6 305/3/6
f 305/3/6 294/3/6 306/3/6
f 302/3/6 303/3/6 307/3/6
f 304/3/6 305/3/6 308/3/6
f 302/3/6 307/3/6 309/3/6
f 308/3/6 305/3/6 310/3/6
f 302/3/6 309/3/6 311/3/6
f 310/3/6 305/3/6 312/3/6
f 302/3/6 311/3/6 313/3/6
f 312/3/6 305/3/6 316/3/6
f 302/3/6 313/3/6 317/3/6
f 313/3/6 314/3/6 317/3/6
f 314/4/6 315/4/6 318/4/6
f 317/3/6 314/3/6 318/3/6
f 315/3/6 316/3/6 319/3/6
f 318/4/6 315/4/6 319/4/6
f 316/3/6 305/3/6 320/3/6
f 319/3/6 316/3/6 320/3/6
f 321/8/6 322/8/6 323/8/6
f 323/8/6 322/8/6 324/8/6
f 321/8/6 323/8/6 325/8/6
f 324/8/6 322/8/6 326/8/6
f 321/8/6 325/8/6 327/8/6
f 325/8/6 326/8/6 327/8/6
f 326/8/6 322/8/6 328/8/6
f 327/8/6 326/8/6 328/8/6
f 329/6/6 330/6/6 331/6/6
f 331/6/6 330/6/6 332/6/6
